<?xml version="1.0" encoding="UTF-8" standalone="no"?>
<svg
   xmlns:dc="http://purl.org/dc/elements/1.1/"
   xmlns:cc="http://creativecommons.org/ns#"
   xmlns:rdf="http://www.w3.org/1999/02/22-rdf-syntax-ns#"
   xmlns:svg="http://www.w3.org/2000/svg"
   xmlns="http://www.w3.org/2000/svg"
   xmlns:sodipodi="http://sodipodi.sourceforge.net/DTD/sodipodi-0.dtd"
   xmlns:inkscape="http://www.inkscape.org/namespaces/inkscape"
   width="200"
   height="200"
   viewBox="0 0 150 150"
   version="1.1"
   id="svg137"
   sodipodi:docname="globe.svg"
   inkscape:version="0.92.3 (2405546, 2018-03-11)">
  <metadata
     id="metadata141">
    <rdf:RDF>
      <cc:Work
         rdf:about="">
        <dc:format>image/svg+xml</dc:format>
        <dc:type
           rdf:resource="http://purl.org/dc/dcmitype/StillImage" />
        <dc:title></dc:title>
      </cc:Work>
    </rdf:RDF>
  </metadata>
  <sodipodi:namedview
     pagecolor="#ffffff"
     bordercolor="#666666"
     borderopacity="1"
     objecttolerance="10"
     gridtolerance="10"
     guidetolerance="10"
     inkscape:pageopacity="0"
     inkscape:pageshadow="2"
     inkscape:window-width="1366"
     inkscape:window-height="715"
     id="namedview139"
     showgrid="false"
     units="px"
     inkscape:zoom="2.085965"
     inkscape:cx="88.040233"
     inkscape:cy="121.0416"
     inkscape:window-x="-8"
     inkscape:window-y="-8"
     inkscape:window-maximized="1"
     inkscape:current-layer="surface1" />
  <defs
     id="defs40">
    <clipPath
       id="clip1">
      <path
         d="M 1,0 H 239 V 240 H 1 Z m 0,0"
         id="path2"
         inkscape:connector-curvature="0" />
    </clipPath>
    <clipPath
       id="clip2">
      <path
         d="m 120.23828,239.78906 c 65.57031,0 118.72656,-53.48828 118.72656,-119.46484 0,-65.976564 -53.16015,-119.464845 -118.72656,-119.464845 -65.570311,0 -118.726561,53.488281 -118.726561,119.464845 -0.00391,65.97656 53.15625,119.46484 118.726561,119.46484 z m 0,0"
         id="path5"
         inkscape:connector-curvature="0" />
    </clipPath>
    <radialGradient
       id="radial0"
       gradientUnits="userSpaceOnUse"
       cx="358.48999"
       cy="360.70999"
       fx="358.48999"
       fy="360.70999"
       r="358.89001"
       gradientTransform="matrix(0.48072818,0,0,0.48072499,0.243944,-0.23455876)">
      <stop
         offset="0"
         style="stop-color:rgb(63.921569%,80.392157%,22.352941%);stop-opacity:1;"
         id="stop8" />
      <stop
         offset="0.1721"
         style="stop-color:rgb(62.352941%,80%,23.137255%);stop-opacity:1;"
         id="stop10" />
      <stop
         offset="0.3626"
         style="stop-color:rgb(57.254902%,78.431373%,24.313725%);stop-opacity:1;"
         id="stop12" />
      <stop
         offset="0.6758"
         style="stop-color:rgb(42.352941%,74.509804%,27.058824%);stop-opacity:1;"
         id="stop14" />
      <stop
         offset="0.7402"
         style="stop-color:rgb(34.117647%,70.588235%,27.843137%);stop-opacity:1;"
         id="stop16" />
      <stop
         offset="0.8626"
         style="stop-color:rgb(9.803922%,65.098039%,29.019608%);stop-opacity:1;"
         id="stop18" />
      <stop
         offset="0.8845"
         style="stop-color:rgb(7.45098%,61.960784%,28.627451%);stop-opacity:1;"
         id="stop20" />
      <stop
         offset="0.8901"
         style="stop-color:rgb(7.843137%,60.784314%,28.235294%);stop-opacity:1;"
         id="stop22" />
      <stop
         offset="1"
         style="stop-color:rgb(3.921569%,57.647059%,27.843137%);stop-opacity:1;"
         id="stop24" />
    </radialGradient>
    <clipPath
       id="clip3">
      <path
         d="M 1,3 H 239 V 240 H 1 Z m 0,0"
         id="path27"
         inkscape:connector-curvature="0" />
    </clipPath>
    <clipPath
       id="clip4">
      <path
         d="m 120.23828,239.78906 c -16.82812,0 -32.874999,-3.53906 -47.390624,-9.89844 0.761719,-0.63671 0.761719,-1.91796 -0.320312,-2.21093 -0.394532,-0.78907 -0.492188,-3.25 1.28125,-3.05469 1.769531,0.19922 5.21875,2.16797 4.332031,-1.27734 -0.886719,-3.44532 0.789063,-0.29688 0.789063,-0.29688 0,0 0.589843,-0.29297 1.375,0.49219 0.789062,0.78906 1.96875,1.3789 2.265624,0.78906 0.296876,-0.59375 1.773438,-1.47656 3.640626,-1.18359 1.871093,0.29687 2.757812,-2.5586 2.757812,-2.5586 0,0 2.363281,2.85547 0.691406,-2.0664 -1.675781,-4.92188 0.09766,-2.75782 1.179688,-2.95313 -0.09766,-0.78906 0.394531,-0.10156 0.492187,-1.47656 0.589844,0.58984 5.90625,0.48828 5.90625,0.48828 0,0 -0.488281,-1.67187 0.296875,-2.16406 1.378906,1.67578 4.824224,1.96875 4.234374,0.58984 5.31641,-3.14844 1.57422,-4.13281 2.85547,-5.01953 1.27734,-0.88672 1.96875,-2.75781 0.29297,-4.23437 0.39453,-0.29297 1.37891,-1.77344 1.28125,-2.95313 4.13672,0.0977 2.3125,-1.42969 2.3125,-1.42969 0,0 1.13281,0.14844 0.83984,-1.03125 -0.29687,-1.17968 3.14844,-1.67578 2.95313,-2.36328 -0.19922,-0.6875 0.98437,-1.77344 1.86719,-1.96875 0.88671,-0.19922 2.07031,-2.36328 2.46093,-3.05078 0.39453,-0.69141 -2.26172,-2.26562 -2.26172,-2.26562 0,0 -4.6289,0.6875 -2.90625,-0.14844 1.72266,-0.83594 -1.91796,-1.42578 -3.19921,-1.23047 -0.19532,-1.17969 -1.37891,-1.47656 -1.37891,-1.47656 0,0 -2.65625,0.6914 -2.95313,-0.78907 -0.65625,-3.28125 -4.035152,-1.57421 -4.035152,-1.57421 0,0 -3.644532,-0.98438 -4.921876,-2.36329 -1.476562,1.37891 -4.234374,0.88672 -2.167968,-0.0977 2.070312,-0.98438 1.183594,-2.36328 0.199218,-2.06641 -0.984374,0.29297 -4.332031,0.29297 -4.53125,-0.98437 -1.179687,-0.29688 -1.871093,1.47656 -2.363281,1.87109 -0.492187,-0.78906 -3.347656,0.49219 -4.527343,0.88281 -0.6875,-0.58984 -1.96875,0.59375 -2.558594,0.29688 -0.589844,-0.29688 -2.066406,0.6914 -0.984375,-0.6875 1.082031,-1.37891 2.261719,-0.29688 2.753906,-0.59375 0.496094,-0.29297 0.691406,-0.6875 0.691406,-0.6875 0,0 1.179688,0.49219 2.757813,-0.0977 1.574218,-0.58984 1.671875,-1.77344 1.082031,-2.66015 -0.589844,-0.88282 -1.476563,0.88671 -2.757813,1.08593 -0.175781,-0.79297 0.492188,-0.6914 0.691407,-1.3789 0.195312,-0.69141 -0.199219,-1.08203 -0.886719,-0.98438 -0.492188,1.08203 -1.773438,2.36328 -3.546875,2.16406 0,-1.08203 -0.785156,-0.0977 -2.164063,0.78907 -1.378906,0.88672 -1.675781,-0.98438 -0.691406,-1.28125 0.988282,-0.29297 3.25,-1.47657 4.433594,-1.67188 1.179688,-0.19922 0.292969,-0.88672 0.785156,-1.18359 0.492188,-0.29297 0.691406,1.28125 0.789063,-1.27735 0.09766,-2.5625 -2.066407,-1.47656 -1.96875,-2.95312 0.09766,-1.48047 -1.082031,-2.66016 -1.675781,-3.54688 -0.589844,-0.88671 -0.492188,-1.77343 -0.492188,-1.77343 l -0.984375,0.10156 c 0,0 -1.871094,-1.28125 -3.050781,-0.69141 -1.871094,-3.05078 -3.9375,0 -4.332032,-1.27734 -0.394531,-1.28125 -2.855468,-0.49219 -3.9375,-1.18359 -1.082031,-0.6875 1.082032,-2.85547 -0.59375,-3.83985 -1.175781,-0.6914 -1.472656,-2.26172 -1.472656,-2.26172 0,0 -1.871094,1.17969 -1.96875,-1.18359 -0.101562,-2.36328 -1.773437,-1.87109 -2.5625,-1.18359 0,-0.6875 -0.6875,-0.98047 -1.378906,-1.17969 -0.292969,-0.58985 1.972656,-0.88672 1.972656,-0.88672 0,0 0.882813,0.29687 1.574219,0.0977 -0.199219,-1.57422 -2.464844,-1.57422 -2.855469,-1.47657 -0.394531,0.10157 -2.757812,0.98828 -3.152344,0.59375 -0.394531,-0.39453 -1.476562,-1.3789 -1.96875,-1.28125 -0.492187,0.0977 -3.246093,-0.6875 -3.246093,-0.6875 0,0 -0.492188,-1.3789 -1.085938,-1.3789 -0.589843,0 -1.378906,-0.19532 -1.671875,-1.37891 0.492188,-0.49219 0.292969,-1.08203 0.195313,-2.55859 -0.09766,-1.47657 -0.589844,-1.47657 -1.96875,-0.78907 0,0 0.886719,2.36329 -0.789063,3.14844 -1.671875,0.78906 -0.292968,1.57813 -0.292968,1.57813 0,0 0.492187,0.88672 -0.296876,1.47656 -0.785156,0.58984 -0.492187,0.6875 -1.574218,0.29687 -1.082032,-0.39453 -0.886719,-1.57812 -0.394532,-2.07031 0.492188,-0.49219 0.789063,-1.08203 1.378907,-1.76953 0.589843,-0.69141 -0.195313,-1.18359 -0.296875,-1.77344 -0.09766,-0.58984 -0.195313,-1.28125 0.984375,-1.57422 1.183593,-0.29687 0.59375,-1.08593 0.199219,-0.88671 -0.394532,0.19531 -0.492188,0.49218 -1.476563,0.39453 -0.984375,-0.58985 -1.476563,-0.49219 -1.96875,0.29297 -0.59375,-0.39454 -4.53125,0.19921 -4.433594,0.78906 0.101563,0.58984 0.199219,1.08203 -0.390625,1.27734 -0.59375,0.19922 -0.886718,0.98828 -0.988281,2.16797 -0.589844,3.64063 -1.277344,-0.39453 -1.277344,-1.47656 0,-1.08203 -0.199219,-1.28125 -1.234375,-1.625 -0.441406,-1.13281 -2.015625,-0.9336 -2.410156,-0.73828 -0.394531,0.19922 -2.757812,0.39453 -2.757812,0 0,-0.39453 0.296874,-2.75782 -0.785157,-2.75782 -0.199219,-0.78515 0.09766,-1.57421 -0.738281,-2.90234 0.933594,0.0469 0.539062,-0.64062 0.246094,-1.47656 0,0 -0.148438,-1.13281 -0.394532,-1.33203 0.34375,-0.0469 0.34375,-0.49219 0.34375,-0.49219 0,0 1.429688,0 1.429688,-1.22656 0,-1.23438 -0.789062,-1.48047 -0.542969,-2.11719 -0.640625,-0.59375 0.148438,-1.87109 0.640625,-2.16797 0.492188,-0.29687 0.984375,-1.47656 -0.296875,-1.67578 0.394531,-0.98047 -0.984375,-1.76953 -2.65625,-1.86719 -0.394531,-0.39453 -0.496093,-1.08203 -2.21875,-1.18359 -1.722656,-0.0977 -0.441406,-1.28125 0.148438,-1.67188 0.59375,-0.39453 1.203125,-3.98046 0.789062,-4.03515 1.476563,0.19531 2.363281,0.39062 2.363281,-0.88672 0,-1.28125 1.277344,-0.19922 1.179688,-1.96875 -0.09766,-1.77344 2.226562,0.83594 0.394531,-2.26563 -1.28125,-2.16796 -2.066406,-0.39453 -3.347656,-0.88671 -1.324219,-0.50782 -2.558594,1.28125 -1.179687,2.75781 0.6875,0.29297 -0.648438,1.96875 -2.5625,1.96875 -0.6875,0 -1.671876,-2.41406 -1.671876,-2.75781 0,-0.34375 -0.148437,-0.98438 -1.230468,-1.42579 -1.082032,-0.44531 -0.738282,-1.82421 0.148437,-2.11718 0.195313,-0.98828 -0.05078,-3.29688 -0.05078,-3.29688 0,0 0.34375,-0.83984 0.246094,-1.03515 0.542968,-0.29688 0.835937,-2.51172 0.789062,-2.95313 -0.394531,-1.08594 0.882813,-2.070312 2.507813,-2.117188 0.296875,-0.589843 -0.292969,-2.363281 -0.539063,-2.609374 -0.246094,-0.246094 0.6875,0.148437 0.589844,-1.578126 0.6875,-0.292968 0.984375,-0.734374 0.984375,-1.574218 0.441406,-0.835938 0.589844,0 0.789063,-0.785156 0.195312,-0.789063 -0.101563,-1.722657 0.394531,-1.972657 0.488281,-0.242187 1.375,-0.195312 1.574219,-0.144531 1.476562,0.34375 1.476562,1.230469 2.460937,0.933594 0.984375,-0.292969 0.785156,0.394531 0.886719,1.28125 0.09766,0.886718 0.195312,1.96875 0.636718,1.378906 0,0 0.886719,0.394531 0.394532,1.871094 -0.09766,0.539062 0.394531,0.292968 0.347656,0.785156 0.394531,0.984375 1.425781,0.542969 1.425781,0.542969 0,0 0.34375,-0.296875 0.09766,-0.835938 -0.246094,-0.542969 -0.296876,-2.070312 0.05078,-2.214843 0.34375,-0.148438 -0.347657,-1.035157 -0.347657,-1.035157 0,0 -0.539062,-1.082031 0.394532,-0.738281 0.9375,0.34375 0.789062,0.492188 0.9375,0.933594 0.148437,0.445312 0.886718,0.738281 1.96875,0.589844 1.082031,-0.144532 -1.378906,0.542968 1.574218,0.984374 0.394532,0.9375 -0.730468,0.246094 0.394532,1.183594 0.296875,0.246094 -0.148438,0.738282 -0.394532,0.984375 -0.246093,0.246094 -0.246093,0.835938 0,0.984375 0.246094,0.148438 0.738282,-0.148437 0.839844,0.199219 0.242188,-0.347656 0.6875,0.34375 0.734375,0.980469 0.839844,0.839846 0.101563,1.675786 -0.390625,1.972656 -0.492187,0.29297 0.195313,1.17969 0.195313,1.17969 -1.082031,0.0977 -1.082031,0.64062 -0.984375,0.78906 0.09766,0.14844 0.05078,0.44141 -0.09766,0.58984 0.589843,0.44141 0.148437,1.32813 -0.09766,2.36329 0.539063,0.58984 0.441407,1.67187 0.34375,2.16406 -0.09766,0.49219 0.984375,0.54297 1.277344,-0.29297 0.296875,-0.83594 0.542969,-0.49219 0.691406,-0.49219 0.144531,0 0.144531,-0.58984 -0.199219,-0.98437 -0.34375,-0.39453 -0.246093,-0.98828 -0.144531,-1.37891 0.09766,-0.39453 0.04687,-0.58984 0.785157,-0.58984 0.640624,-0.49219 0.691406,-1.23047 1.378906,-1.77344 -0.886719,0 -0.640625,-0.34375 -0.589844,-0.73828 0.04687,-0.39453 -0.738281,-1.03516 -0.789062,-1.625 -0.05078,-0.58985 -0.05078,-1.476565 0.984374,-2.757815 0.246094,-0.6875 0,-1.769531 0,-1.769531 0.492188,-0.789063 0.984376,-0.589844 1.820313,-0.640625 0.839844,-0.05078 2.019531,-1.132813 3.003906,-0.9375 0.984375,0.199219 1.476563,-1.277344 1.476563,-1.277344 0.886718,-0.691406 1.773437,0.394531 2.855468,-0.199219 1.082032,-0.589844 2.558594,-1.671875 2.265626,-2.65625 -0.296876,-0.984375 1.773437,-0.296875 0.6875,-3.644531 -0.785157,-1.574219 0.886718,-1.476563 0.148437,-2.214844 -0.738281,-0.738281 3.003906,-1.132812 3.25,-0.09766 0.835937,-0.148437 0.539063,-1.820313 2.117187,-0.835937 0.195313,-1.28125 1.671876,-2.167969 2.65625,-0.492188 0.984376,1.671875 2.066407,0.09766 2.066407,0.09766 0,0 1.480469,-1.085937 2.167969,-0.691406 0.6875,0.394531 -2.363282,-2.066406 -0.148438,-2.703125 -0.04687,-2.21875 2.804688,-2.21875 3.300781,-2.019531 0.492188,0.195312 3.425781,0.765625 4.824219,-0.492188 0.984375,-0.886718 3.246094,0.292969 1.769531,0.6875 -1.476562,0.394532 -2.164062,0.984375 -2.261719,1.476563 -1.085937,0 -1.441406,1.953125 0.09766,1.183593 0.785156,-0.394531 1.476562,-1.675781 1.96875,-1.085937 0.492187,0.589844 1.082031,0.496094 1.277343,-0.04687 2.019532,0.296875 2.609376,-0.148438 2.609376,-0.148438 0,0 0.691406,-0.738281 0.640624,-1.378906 0.738282,-0.246094 1.96875,-0.246094 2.019532,-1.425781 C 80.109375,75.519531 79.8125,75.375 79.8125,75.375 l -1.527344,0.04687 c 0,0 -0.835937,-0.246094 -0.835937,-0.640625 -0.34375,0.640625 -1.871094,0.542969 -1.96875,0.199219 -0.09766,-0.34375 -0.789063,-2.414063 -0.199219,-2.660157 0.59375,-0.246093 0,-0.6875 0,-0.6875 0,0 -0.835938,0.296876 -1.179688,0.195313 -0.34375,-0.09766 0.492188,-0.785156 0,-0.984375 -0.492187,-0.195312 2.363282,-0.04687 3.296876,-0.246094 0.9375,-0.195312 1.476562,-0.292968 0.640624,-1.820312 -0.835937,0 -2.265624,1.03125 -2.757812,0.05078 -0.492188,-0.988281 -2.511719,0.933594 -3.394531,0.6875 C 71,69.269531 69.96875,69.957031 69.523438,70.5 c -0.441407,0 -1.429688,1.328125 -2.460938,1.28125 -1.035156,-0.05078 -1.230469,0.04687 -1.230469,0.04687 0,0 -0.394531,-0.6875 0,-0.589844 0.394531,0.09766 0.984375,-0.148437 1.179688,-0.441406 0.199219,-0.296875 1.328125,-0.445313 1.921875,-0.886719 0.589844,-0.445312 2.363281,-1.625 3.003906,-1.625 0.636719,0 0.195312,-0.933594 1.03125,-0.738281 0,0 0.296875,0.144531 0.34375,0.34375 0.05078,0.195313 0.640625,-0.640625 1.722656,-0.05078 0.738282,-0.04687 1.476563,-1.179688 3.59375,-0.148438 0.246094,0.542969 0.394532,1.378906 0.394532,1.378906 0,0 0.492187,-0.09766 0.394531,0.9375 -0.09766,1.03125 0.886719,1.871094 1.773437,1.03125 -0.246094,-1.082031 -0.101562,-1.769531 0.246094,-1.820312 0.34375,-0.04687 1.179688,0.05078 1.179688,0.05078 0,0 0.9375,0.539063 3.496093,-0.691406 0.6875,0.05078 1.230469,-0.492187 1.378907,-1.277344 0.144531,-0.789062 0.785156,0 1.179687,-0.984375 0.394531,-0.984375 1.230469,-0.984375 1.476563,-1.085937 0.246093,-0.09766 0.199218,-1.425781 -0.09766,-1.671875 -0.296875,-0.246094 -0.789062,-0.296875 -1.132812,0 -0.34375,0.296875 -0.492188,-0.835938 -1.769531,-0.199219 -1.28125,0.640625 -1.234376,0.199219 -1.234376,0.199219 0,0 0.445313,-0.441406 0.640626,-0.542969 V 62.625 c 0,0 1.722656,-0.05078 2.316406,-0.445312 0.589844,-0.394532 0.04687,-1.722657 -1.96875,-1.378907 -0.347656,-0.539062 1.082031,-0.539062 -0.246094,-1.523437 -0.246094,-0.738282 0.246094,-0.789063 -0.296875,-1.675782 l 0.34375,-0.05078 c 0,0 -0.09766,-1.128906 0.148437,-1.328125 0.246094,-0.195312 0.05078,-0.835937 0.05078,-0.835937 0,0 0.585937,-0.835938 0.04687,-1.917969 l 0.34375,-0.296875 -0.09766,-0.589844 c 0,0 0.539063,-0.492187 0.835938,-0.691406 0.296875,-0.195313 0.09766,-0.984375 0.09766,-0.984375 L 87.63671,51.10547 c 0,0 -0.636719,-1.378907 -1.574219,0.09766 0.199219,0.34375 -0.296875,0.542969 0,0.886719 -0.640625,0.148437 -0.835938,0.738281 -0.835938,0.738281 0,0 -0.246093,-0.148437 -0.441406,0.04687 -0.347656,-0.394531 -0.640625,-0.195312 -0.9375,0 -0.292968,0.199219 -1.722656,-0.148438 -1.625,-0.6875 0.296875,-0.09766 0.347656,-0.246094 -0.144531,-0.492188 -0.492187,-0.246093 0.195313,-1.476562 0.34375,-1.773437 0.148437,-0.292969 1.230469,-1.230469 1.277344,-0.390625 0.05078,0.835938 0.886719,-0.9375 0.148437,-1.234375 -0.34375,-0.539063 -0.04687,-1.871094 -0.492187,-2.164063 -0.441407,-0.296874 0.195312,-0.835937 -0.835938,-1.328124 -1.035156,-0.492188 -0.886719,-0.886719 -0.886719,-0.886719 0,0 -1.179687,0.09766 -1.671874,-0.195313 -0.492188,-0.296875 0.390624,-0.347656 -0.738282,-0.542968 -1.132812,-0.199219 -1.234375,-0.195313 -1.625,-0.445313 -0.394531,-0.246094 -1.183594,0.101563 -1.183594,0.101563 0,0 0.195313,0.441406 0,0.6875 -0.195312,0.246093 0.394532,0.539062 0.394532,0.539062 0,0 0.148437,0.691406 0.492187,1.035156 0.34375,0.34375 -0.542969,-0.195312 -0.199219,1.082032 -0.144531,0.691406 -0.539062,0.296874 -0.738281,0.691406 -0.195312,0.394531 -0.539062,0.835937 -0.539062,0.835937 0,0 -0.789063,0.394531 -0.394531,0.9375 0.394531,0.539063 -2.117188,-1.230469 -1.476563,2.261719 -0.394531,0.199219 -0.539063,0.789062 -0.492187,1.085938 -0.933594,-0.394532 -1.183594,0.195312 -1.183594,1.574218 0,1.378906 -0.933594,0.441406 -1.671875,0.886719 -0.691407,0.242187 -1.773438,0.04687 -1.871094,0.09766 0.246094,0.34375 -0.148437,0.589844 -0.789063,0.640625 0,0 -0.835937,0.246094 -0.984374,1.328125 0,0 -0.886719,0.296875 -0.882813,0.589844 0,0.296875 -1.90625,0.375 -0.296875,1.578125 0.195312,0.144531 -0.6875,0.636719 -0.6875,0.636719 0,0 -0.101562,0.640625 -0.101562,0.738281 0,0.101562 -1.917969,0.148438 -1.96875,-0.148438 -0.04688,-0.292968 -1.082032,0.05078 -0.09766,-1.277343 0.738281,-0.05078 0.984375,-0.34375 0.835938,-1.871094 -0.148438,-1.527344 0.492187,0.394531 1.378906,-1.96875 0.195313,-0.640625 -0.199219,-1.871094 0.148437,-2.019531 0.34375,-0.148438 0.09766,-0.589844 0.09766,-0.589844 0.492187,-1.429688 -1.871094,-0.542969 -1.230469,-2.90625 0.640625,-2.359375 0.246094,-1.082031 -0.542969,-1.523438 -0.292969,-0.296874 -0.09766,-0.886718 -0.09766,-0.886718 0,0 -2.015625,0.441406 -0.886719,-1.476563 1.132813,-1.921875 -0.492187,-0.835937 1.035156,-2.019531 l -0.09766,-0.539062 c 0,0 0.640625,0.785156 1.28125,-2.117188 0.6875,0 1.867188,-0.886719 1.917969,-1.183594 0.05078,-0.292968 1.625,0.05078 2.410156,-0.785156 0.789063,-0.839844 1.28125,0.589844 3.792969,-1.429688 -0.148438,0.589844 1.671875,0 1.671875,0 0,0 0.246094,0.296876 -0.34375,0.640626 0.589844,0.09766 1.277344,0.05078 1.398437,0.40625 0,0 -0.152343,-0.660157 0.519532,-0.996094 0.445312,0.34375 1.429687,-0.542969 1.625,-0.789063 0.199218,-0.246093 0.9375,-0.539062 1.230468,-0.394531 0.296876,0.148438 1.378907,-0.640625 2.019532,-0.492188 -0.296875,-0.933593 0.09766,-0.882812 1.671875,-0.933593 0.492187,-0.445313 1.378906,-0.34375 1.378906,-0.34375 0,0 0.835937,-0.984375 0,-1.96875 -0.835937,-0.988281 -1.03125,-2.660157 -1.527344,-1.972657 -0.492187,0.691407 -1.425781,0.199219 -1.425781,0.199219 0,0 -0.640625,3.148438 -2.363281,0.785157 -0.589844,0.59375 -1.574219,0.394531 -1.574219,0.394531 0,0 0.246094,-1.03125 -0.492188,-1.917969 -0.738281,-0.886719 0.738282,-1.132812 -0.09766,-3.398438 -0.445312,0.296876 -0.984375,-0.195312 -0.984375,-0.195312 l -0.199219,1.378906 c 0,0 -1.527343,0.886719 -1.230468,-1.230468 0.296875,-2.117188 0.789062,-2.953126 2.019531,-2.90625 1.230469,0.05078 0,-1.574219 0,-1.574219 0,0 0.441406,-0.394531 0.789063,-0.195313 0.339843,-0.445312 0.734374,-3.003906 0,-3.152344 C 77.25,18.515625 77.59375,18.125 77.59375,18.125 c 0,0 0.886719,-0.691406 -0.640625,-0.640625 -1.527344,0.04687 -1.230469,0.492187 -1.230469,0.492187 0,0 -0.6875,-0.886718 0.148438,-1.085937 0.148437,-0.394531 0.441406,-0.789063 2.214844,-0.933594 1.773437,-0.148437 -0.640626,-0.394531 2.558593,-1.035156 0,-0.6875 0.492188,-1.085937 3.398438,-0.933594 1.871093,0.09766 1.328125,-0.789062 1.476562,-1.773437 1.03125,-0.195313 3.152344,-0.984375 3.101563,-2.902344 C 88.570312,7.390625 89.164062,8.082031 89.0625,7.046875 88.964844,6.011719 92.214844,6.0625 92.804688,5.273438 93.148438,5.914062 94.476562,6.160156 94.476562,6.160156 95.265625,6.355469 99.5,4.878906 99.5,4.878906 c 0,0 1.67188,0.886719 3.15234,-0.195312 0.58985,2.066406 1.67188,-1.773438 3.9375,0.195312 1.375,-0.097656 0.78516,-1.277344 2.95313,-0.492187 0,0 2.26172,0.101562 2.75391,-0.097657 0.49218,-0.195312 2.95703,0.691407 3.44531,-0.394531 0.49609,-1.082031 3.64453,0 3.64453,0 0,0 -2.06641,1.480469 0.59375,1.378907 l 0.48828,-0.019532 C 122.77734,5.125 123.74219,4.75 122.63672,4.289062 c -1.18359,-0.492187 1.57422,-0.589843 3.05078,0.984376 0.88672,0.199218 2.5625,-0.097657 2.5625,-0.097657 0,0 0.4375,-0.125 1.08203,0.886719 0.6875,1.082031 0.58984,-2.65625 1.96875,-1.082031 0.88672,0.492187 0.39453,-1.085938 4.42969,0.097656 4.03515,1.179687 1.18359,2.65625 1.18359,2.65625 l 0.19531,0.492187 -0.58984,0.886719 c -1.47656,0.886719 -1.28125,2.265625 1.08203,0.296875 1.1836,1.671875 0.0977,-2.167968 5.1211,0.097656 1.17968,-0.492187 0.58984,2.167969 2.26171,0.6875 0,0 -0.19531,1.378907 2.07032,0.691407 2.26172,-0.691407 1.27734,0.6875 1.27734,0.6875 0,0 1.67578,-0.785157 2.5625,-0.390625 0.88281,0.390625 0.41797,0.914062 4.13281,1.375 1.57422,0.199218 0,1.28125 -1.17968,1.183594 0.0977,0.984374 4.05468,2.507812 3.34765,1.179687 -0.78906,-1.476563 -0.29687,-1.476563 0.78516,0.394531 1.08203,1.871094 3.54687,-0.886718 3.54687,-0.886718 0,0 1.57422,1.28125 1.17969,2.066406 -0.39453,0.789062 0.78906,1.382812 0.78906,1.382812 1.47657,-0.59375 4.42578,1.621094 -0.58984,1.179688 -3.34766,-0.296875 -1.48047,1.378906 -1.18359,1.574218 0.29687,0.199219 2.26562,-1.773437 2.46093,1.675782 0.19922,3.445312 1.08594,2.066406 1.08594,2.066406 0,0 2.35938,-0.886719 2.06641,1.378906 -0.29688,2.261719 -0.58985,3.050782 1.87109,5.117188 2.46094,2.070312 -1.18359,2.464844 -1.87109,1.871094 -0.69141,-0.589844 -3.25,-0.6875 -4.03516,-0.09766 -0.78906,0.589844 -0.29687,-0.789062 0.78516,-0.886719 1.08203,-0.09766 0.29687,-1.476562 2.16406,-2.066406 1.87109,-0.589844 -2.46094,-1.871094 -3.14844,-1.378906 -0.6875,0.492188 -3.54297,-0.882812 -6.20312,-0.195312 l -0.39453,-0.59375 c 0,0 -1.76954,0.101562 -1.67188,0.59375 0.0977,0.492187 -2.66016,-0.394532 -3.74219,0.984374 -1.08203,1.378907 0.98438,3.445313 0,4.527344 1.47657,0.589844 2.26563,3.152344 1.96875,4.332032 -0.29687,1.183593 2.06641,0.984374 2.06641,0.984374 0,0 1.18359,0.394532 -0.0977,2.363282 1.28125,0.492187 0.78907,2.953125 0.39453,3.742187 -0.39453,0.789063 1.1836,1.871094 0.78907,2.953125 -0.39453,1.082032 1.96875,1.082032 1.96875,1.082032 0,0 0.98437,2.558593 1.77343,3.25 0.78516,0.6875 2.66407,-1 2.35938,-3.742188 -0.0977,-0.886719 1.47656,0.296875 1.47656,0.296875 0,0 1.875,1.574219 1.67578,2.460937 -0.19531,0.886719 -0.58984,1.96875 -1.77343,1.183594 -0.49219,1.867188 -0.19532,4.429688 1.97265,3.9375 -0.10156,-1.085937 0.88281,-0.886718 0.88281,-0.886718 0,0 -1.875,-1.625 1.8711,-0.691407 1.96875,0.492188 0.78906,-1.769531 1.87109,-3.738281 1.08203,-1.972656 1.8711,-2.5625 -0.58984,-2.460938 -2.46094,0.09766 -3.04297,-1.804687 -3.25,-2.464843 -0.58985,-1.867188 -0.33985,1.410156 -3.05078,-2.65625 -0.98438,-1.476563 0.6289,-0.777344 -1.28125,-2.265625 -0.88672,-0.6875 0.98437,-2.953125 0.98437,-2.953125 0,0 -0.98437,-1.574219 -2.75781,-0.785157 -1.76953,0.785157 -0.39063,-1.675781 0,-1.578124 0.39453,0.101562 1.77344,0.492187 2.46484,0 0.6875,-0.492188 1.47657,0.886718 1.47657,0.886718 0,0 -0.57032,5.433594 2.26171,4.824219 1.37891,-0.296875 1.28125,3.148437 3.44922,0.492187 h 0.98047 c 0,0 0.39453,-1.476562 1.08594,-1.179687 0.6875,0.292969 0.58984,-2.070313 0.29687,-2.660156 -0.29687,-0.589844 3.39063,0.0625 1.96875,4.332031 -0.59375,1.773438 -2.75781,1.574219 -2.75781,1.574219 l 1.17969,2.070312 c 1.08594,3.148438 2.75781,3.542969 2.16797,7.183594 -0.13672,0.839844 -2.07031,1.085937 -2.07031,1.085937 0,0 -0.19532,2.261719 -2.95313,2.164063 -2.75391,-0.09766 -1.67187,0.6875 -2.06641,0.789063 -0.39453,0.09766 0.0977,2.164062 -0.78906,2.261718 -0.88281,0.101563 -0.88281,3.644532 -3.44531,0.789063 -2.55859,-2.855469 -0.88672,4.035156 0.29687,2.558593 1.17969,-1.472656 0.49219,2.757813 0.98438,1.773438 0.49219,-0.984375 0.29687,3.644531 -3.05078,3.839844 -3.34766,0.195312 0.49219,2.460937 1.27734,2.265625 0.78906,-0.199219 0.98828,0.886719 -3.24609,0.785156 -4.23438,-0.09766 -3.34766,4.433594 0.6875,3.054687 4.03515,-1.378906 1.96875,0.390626 1.96875,0.390626 l 0.88672,0.691406 c 0,0 -0.34766,0.148437 -0.41797,0.617187 -0.0742,0.464844 1.30469,1.15625 1.59765,1.351563 0.29688,0.195312 1.57813,2.753906 1.28125,3.445312 -0.29687,0.691406 1.57422,3.152344 -5.51171,1.671875 -0.78907,1.183594 -4.82422,0.199219 -4.82422,0.199219 0,0 1.26953,1.535156 -2.07032,1.773438 -1.3789,0.09766 1.8711,0.589843 2.16797,2.851562 0.29297,2.265625 1.27735,2.660156 1.27735,2.660156 l -0.0977,3.25 c 0,0 0.78906,1.871094 3.83984,0.886719 0,1.96875 1.37891,3.640625 4.62891,1.179687 h 1.96875 c 0,0 -0.39453,-1.773437 2.75781,-1.773437 0.39453,-0.785156 -0.59375,-1.277344 0.58985,-2.558594 1.17968,-1.28125 -2.26563,-2.164062 1.57422,-4.726562 3.83984,-2.558594 -1.57422,-0.589844 1.3789,-4.332031 -0.6914,-1.082032 -2.36328,-5.316407 1.96875,-2.558594 0.0977,-1.574219 0.39453,-4.527344 0.78906,-4.527344 0.39063,0 4.64063,-1.671875 4.33204,2.363281 -0.10157,1.277344 1.87109,-0.59375 4.33203,2.359375 2.0664,-0.09766 4.52734,0.984375 4.52734,0.984375 0,0 -0.67187,1.96875 -0.19531,4.332031 0.19531,0.988282 -1.77344,0.394532 -1.77344,0.394532 -0.49219,2.5625 3.14844,1.476562 4.13281,1.378906 0.98438,-0.09766 -1.17968,-2.363281 -1.17968,-2.363281 -0.39454,-1.871094 3.64062,-3.542969 -0.19532,-5.117188 0,0 3.73828,-1.28125 -1.77343,-1.773437 -4.8086,-0.429688 -3.05469,-1.574219 -3.05469,-1.574219 0,0 -2.94922,0.09766 -3.2461,-2.5625 -3.34765,-0.09766 -1.96875,-5.808594 1.77344,-0.984375 3.73828,4.824219 0,-1.179688 4.52735,2.167969 1.47656,0 4.13281,0.886719 4.33203,1.574219 0.19531,0.6875 0.49218,2.757812 0.49218,2.757812 0,0 1.47657,-0.59375 1.57422,0.589844 0.0977,1.179687 3.15235,2.460937 3.54297,1.96875 0.39453,-0.492188 2.625,2.058594 1.08594,-1.277344 -0.59375,-1.28125 0.78516,-1.28125 0.78516,-1.28125 0.78906,-1.871094 -2.75391,-0.296875 -2.95313,-2.363281 -0.19531,-2.066407 -0.39453,-3.542969 -0.39453,-3.542969 0,0 1.77344,-0.789062 1.87109,0 0.69141,-0.59375 -0.29297,-5.023438 -1.67187,-4.332031 -1.37891,0.6875 1.57422,-2.070313 -1.1836,-3.152344 0.49219,-1.574219 -1.67187,-1.378906 -0.98437,-3.347656 -1.57422,-0.589844 -1.08203,-2.066407 -0.19531,-2.066407 -0.39453,-0.886718 1.17968,-1.28125 1.17968,-1.28125 0,0 0.29688,-1.773437 1.57813,-1.179687 -0.39453,-1.378906 -0.49219,-3.9375 0.19531,-3.742187 0.6875,0.195312 0.78906,0.785156 0.78906,0.785156 0,0 0.98047,0.890625 -0.0508,2.21875 -1.03125,1.328125 0.83594,1.230468 0.83594,1.230468 0,0 1.96875,-0.199218 2.5625,0.6875 1.17969,-0.6875 2.16406,0 2.16406,0 0,0 0.6875,1.28125 2.36328,1.476563 1.67188,0.199219 0.71485,4.085937 -1.77343,4.429687 -3.54297,0.496094 -1.47657,2.5625 -2.35938,3.644532 -0.88672,1.082031 -2.75781,-0.09766 -2.36328,6.398437 0.6875,1.96875 2.26172,1.871094 2.26172,2.660157 0,0.785156 -0.49219,0.292968 -0.49219,0.292968 0,0 -0.0977,1.675782 2.16797,2.757813 2.26172,1.082031 2.06641,-0.09766 2.55859,-0.394531 0.49219,-0.292969 -0.29687,-1.277344 1.08204,-1.277344 -0.19532,-1.085938 0.58984,-3.25 1.18359,-2.5625 0.98437,-1.277344 1.57422,3.347656 2.06641,2.265625 0.49218,-1.082031 -0.19532,-2.953125 -0.19532,-2.953125 0,0 0.6875,-1.082032 2.95313,3.742187 -0.29688,2.261719 3.14844,5.117188 0.39062,5.511719 -2.7539,0.394531 1.47657,2.164062 -2.94922,2.757812 -0.88671,1.574219 -2.5625,0.589844 -2.5625,0.589844 0,0 0.78907,1.871094 -4.52734,0.984375 -0.0977,2.164063 -4.03516,1.082031 -2.5625,2.164063 1.47656,1.085937 -0.88672,1.085937 0.19922,4.726562 -1.47656,0.492188 -5.61328,0.199219 -5.90625,0 -0.29688,-0.195312 -0.39453,-2.65625 -2.5625,-0.292968 -1.76953,-0.296876 -3.19531,-0.08203 -4.13281,0.292968 -1.96875,0.789063 -0.49219,-2.460937 -0.98438,-2.953125 -0.49219,-0.492187 1.0625,-3.796875 -0.59375,-3.542969 -2.55859,0.394532 -3.24609,-0.789062 -4.42969,0.195313 -1.17968,0.984375 -4.42968,2.167969 -5.01953,2.167969 -0.58984,2.066406 -2.95312,3.640625 -3.74218,3.738281 0,2.070313 -3.54297,2.167969 -3.54297,2.167969 0,0 0.19531,2.261719 -2.16797,2.363289 -2.36328,0.0977 0.19922,1.87109 -5.60938,0.88671 -0.19922,2.75391 -2.75781,3.73829 -3.15234,4.72266 -0.39453,0.98438 3.15234,10.24219 -5.90625,10.24219 -0.49219,0 0.78516,0.78515 0.78516,0.78515 0,0 0.29687,1.28125 -0.6875,2.06641 -0.98438,0.78906 -0.19532,3.74219 -2.06641,5.02344 -1.87109,1.27734 -3.64453,10.33593 0.39453,12.60156 0.78516,-1.28125 1.96875,1.67187 0,3.54297 -1.57812,-0.39063 -1.96875,0.78906 -1.96875,1.87109 0,1.08203 -1.96875,2.07031 -1.96875,2.07031 1.57422,1.17969 -0.70312,1.62891 1.57422,3.14844 0.88672,0.58985 -2.66016,3.15235 1.17969,3.25 3.83984,0.0977 4.43359,1.8711 4.43359,1.8711 0,0 0.58984,1.08203 1.08203,1.17968 0.49219,0.0977 -0.29687,0.78907 -0.29687,0.78907 l 0.0977,1.08203 c 0,0 2.95313,-0.78907 3.44922,4.72656 0.48828,5.51172 5.80469,1.27734 5.80469,1.27734 0,0 2.16797,8.27344 6.30078,3.15235 2.26563,-0.49219 6.30469,0.39453 6.30469,0.39453 0,0 1.17969,-1.08594 1.17969,-1.8711 0,-0.78906 1.28125,-0.88671 1.57421,0.0977 0.29688,0.98438 2.08204,-0.95312 2.08204,-0.95312 0,0 1.08203,-5.17188 6.4414,-6.19532 l 1.02735,-0.6289 c 0,0 1.19921,1.45312 0.99218,2.05468 -0.20312,0.60157 0.8086,-0.19531 0.8086,-0.19531 0,0 1.61328,3.07813 2.02343,2.57813 0.41016,-0.5 1.96485,-3.71875 2.41797,-0.97657 0.55078,0.082 1.33985,0.8711 1.4375,1.36329 0.0977,0.49218 0.78907,-0.0977 0.78907,-0.0977 -0.58985,-1.57422 1.17968,-4.53125 1.76953,1.37891 0.59375,5.90625 -1.8711,2.55859 -0.29297,7.18359 2.0664,-0.58984 2.0664,1.37891 2.0664,1.37891 0,0 2.65625,1.18359 1.17969,2.16796 -1.47656,0.98438 1.77344,2.5586 -0.0977,7.48047 2.95312,0.78907 2.46484,2.9375 -0.78907,2.75782 -1.76953,-0.0977 -0.98047,5.12109 -3.14843,6.69531 0.58984,1.96875 -3.34766,4.42969 -0.39454,6.30078 -0.78906,1.77344 -0.49218,3.9375 -0.49218,3.9375 0,0 -1.67188,0.78906 -1.47657,5.51172 -1.96875,1.28125 -1.3789,3.44531 -1.17968,3.9414 1.47656,0.19532 4.72265,-3.05468 5.41406,-4.6289 0.6875,-1.57422 0.58984,0.6875 2.55859,-1.8711 1.96875,-2.55859 2.75782,-2.75781 3.34766,-2.85546 0.58984,-0.0977 1.18359,-0.88672 1.57812,-2.95313 1.86719,-0.49219 1.76954,-1.87109 2.65625,-2.75781 0.88672,-0.88281 2.65625,-2.75391 3.44532,-3.14844 0.78906,-0.39453 0.29687,-1.77344 0.29687,-1.77344 0,0 1.08203,-1.27734 1.57422,-0.98437 0.49219,0.29687 1.17969,-2.85547 0.6875,-3.73828 -0.48828,-0.88672 2.5625,-0.78907 2.5625,-0.78907 0,0 -0.39453,-0.98437 0.58984,-0.78906 -0.29687,-2.36328 2.5586,-3.25 1.28125,-6.39844 1.67188,0.19532 0.88282,-3.25 3.05079,-3.25 0.58984,-1.17968 0.29687,-3.34765 -0.0977,-3.73828 1.57422,0.29297 2.95312,-2.16797 3.54297,-3.05468 0.58984,-0.88672 5.3164,-9.15625 2.55859,-12.01172 0.88672,-4.13282 0.58985,-6.19922 0.39453,-6.69532 -0.19531,-0.49218 3.36719,-3.47265 2.36328,-7.48046 -0.58984,-2.36329 1.17969,-2.95313 1.96875,-5.90625 0.78907,-2.95313 -1.57421,-1.08204 0.19922,-4.72657 1.76953,-3.64453 -0.59375,-2.75781 -0.59375,-2.75781 0,0 0.69141,-3.25 1.57813,-3.54297 0.88672,-0.29687 -0.98438,-3.15234 -0.98438,-3.15234 0,0 -0.19922,-1.67188 0.6875,-1.86719 0.88672,-0.19922 0,-3.15234 -0.78906,-3.35156 0.78906,-0.78516 0.49219,-3.05078 0.19922,-4.13281 -0.29688,-1.08203 0.98437,-3.44532 -0.19922,-3.74219 -0.98437,1.08594 -0.0977,1.87109 -0.58984,3.34766 -0.49219,1.47656 0.58984,3.83984 -1.57422,4.33203 -2.16406,0.49218 -1.37891,-2.46094 -1.37891,-2.46094 0,0 -0.0977,-1.67188 -1.08203,-1.57422 -0.98437,0.0977 -0.88672,-1.08203 -0.88672,-1.08203 0,0 -1.67578,1.27734 -1.57422,-0.69141 0.0977,-1.96875 -0.39453,-3.44531 -0.39453,-3.44531 0,0 -1.08203,0.0977 -1.77344,-0.98437 -1.67187,0 -0.98437,-2.75782 -0.98437,-2.75782 0,0 -1.47656,-0.78515 -1.57422,-1.968751 -0.88672,0.687501 -2.95312,-2.460937 -2.55859,-2.953124 0.39453,-0.492188 -2.36328,-0.984376 -2.5625,-2.066407 -0.19532,-1.085937 -1.76953,-2.363281 -2.36328,-2.460937 -0.58985,-0.101563 -0.19532,-4.332032 -0.19532,-4.332032 0,0 1.67188,0.492188 1.37891,2.753907 0.29297,1.28125 2.06641,0.492187 2.06641,0.492187 0,0 -1.4336,0.8125 1.96875,1.378906 1.18359,0.199219 1.18359,2.066407 1.18359,2.066407 h 1.27734 c 0,0 0.98438,3.152343 0.78907,4.433593 0.98437,0.785157 2.0664,0.394532 2.0664,0.394532 0,0 0,1.476569 1.08594,2.261719 1.08203,0.78907 1.375,1.96875 1.375,2.36328 0,0.39454 2.46094,0.0977 2.5625,1.28125 0.0977,1.17969 -0.39453,2.36329 0.78516,3.44532 -0.39063,1.3789 0.88671,2.65625 0.98437,0.0977 0.10156,-2.55859 -0.49219,-4.52734 0.88672,-5.3164 0.88672,-1.8711 -0.39453,-2.26563 0,-4.132819 0.39453,-1.875 0,-7.484375 -2.26172,-7.78125 -0.39453,-1.671875 0,-7.085938 -0.98828,-7.875 -0.98047,-0.789063 -0.58984,-2.164063 -0.58984,-2.164063 0,0 -1.77344,-1.378906 -1.37891,-1.96875 0.39453,-0.59375 -1.47656,-4.332031 -1.27734,-0.199219 -0.69141,0 0.49218,1.179688 0.49218,1.179688 0,0 -1.28125,0.496094 -1.18359,1.773438 -1.17969,-1.082032 0.39453,-2.261719 -2.55859,-2.066407 C 223.75,79.3125 225.32422,76.554688 223.75,76.75 c -1.57422,0.199219 -2.36328,0.101562 -1.96875,-2.164062 0.39453,-2.265626 1.37891,0.789062 1.37891,0.789062 0,0 1.17968,0 2.0664,0.6875 0.88672,0.6875 3.64453,-0.6875 1.77344,-1.773438 0,0 1.37891,-1.871093 0.19531,-2.164062 -1.17969,-0.296875 -0.49219,-1.773438 -1.76953,-2.558594 0.88672,-0.101562 0.78516,-1.773437 0.78516,-1.773437 l 0.43359,-0.511719 c 7.88672,15.980469 12.32031,33.99219 12.32031,53.04297 -0.004,65.95703 -53.16015,119.4414 -118.73046,119.4414 z M 133.91016,35.695312 c 0.0508,0.292969 -0.44141,0.34375 -0.78516,0.492188 -0.34375,0.144531 -0.54297,1.082031 0.34375,1.179688 0.34375,0.445312 1.66406,0.304687 1.66406,0.304687 0,0 0.20703,-0.550781 -0.43359,-0.550781 0.0508,-0.148438 -0.44141,-0.34375 -0.51172,-0.453125 -0.0742,-0.109375 0.11719,-0.679688 -0.27734,-0.976563 z m 1.89453,0.128907 c 0.42187,0.01953 -1.59766,0.355469 0.17578,0.53125 0.19531,0.277343 0.95312,0.285156 1.24219,0.05859 0.28515,-0.226562 0.0352,-0.914062 -0.30469,-0.765624 -0.34766,0.144531 -0.82031,-0.179688 -0.82031,-0.179688 l -0.29688,0.351562 z m 0.46875,1.789062 c -0.49219,0.144531 -0.6211,0.265625 -0.45703,0.601563 0.16406,0.332031 0.66015,-0.160156 1.10156,0.234375 0.4375,0.394531 0.4375,-0.835938 -0.64453,-0.835938 z m 4.12109,14.097657 c -0.59375,0.324218 0.26172,0.785156 0.65234,0.523437 0.39454,-0.261719 0.0664,-0.523437 -0.65234,-0.523437 z m 8.48438,-1 c -0.54297,0.292968 0.39453,0.589843 0.64062,0.589843 0.24609,0 0.19531,-0.640625 0.19531,-0.640625 0,0 -0.44531,0.195313 -0.83593,0.05078 z m -0.2461,2.902343 c -0.44531,0.246094 0.19531,0.59375 0.49219,0.394531 0.29687,-0.199218 0.0508,-0.394531 -0.49219,-0.394531 z M 126.72656,33.292969 c 0.14063,0.05859 0.26563,0.06641 0.34766,0.0078 0.17578,-0.128906 0.53906,-0.199219 0.41406,-0.433593 0.17969,-0.320313 -0.0781,-0.667969 -0.0781,-0.667969 0,0 1.72656,-2.511719 -1.03125,-3.691407 0.78515,-0.394531 1.96875,-1.773437 0.83593,-3.59375 0,0 0.9375,-0.34375 0.49219,-2.164062 2.90234,-1.625 2.41406,-2.511719 -1.91797,0.04687 1.57422,-1.574219 -1.77343,-0.984375 -3.15234,-0.394531 -1.37891,0.589844 -5.71094,0 -2.90234,-0.933594 2.80468,-0.933594 1.52343,-2.019531 -1.8711,-0.984375 -3.39844,1.035156 -3.30078,0.148437 -3.79297,0.34375 -0.49218,0.195313 -3.24609,-0.789063 -3.44531,-1.773437 -0.19531,-0.984376 -2.95312,-1.179688 -4.16016,0.421874 -0.41796,-0.960937 -4.30468,1.15625 -4.30468,3.125 -4.726566,0.785157 -4.332035,1.574219 -3.152348,1.769532 2.363278,-0.394532 7.484378,1.183594 2.511718,1.132812 -4.972655,-0.04687 0.2461,1.230469 1.76953,1.871094 2.70703,-0.34375 3.54688,1.675781 3.54688,1.675781 0,0 -1.13281,1.230469 0.64062,2.804688 -2.5625,1.378906 -0.58984,1.773437 -0.58984,2.757812 0,0.984375 -0.98828,2.558594 -1.42969,2.804688 -0.0508,0.148437 -0.83594,0.246093 -0.24609,-0.246094 0.58984,-0.199219 -0.39453,-1.675781 -1.13281,-1.527344 -2.50391,0.503907 -0.73829,3.300781 0.88671,3.445313 1.625,0.148437 0.9336,2.214844 -0.4414,1.429687 -1.37891,-0.789062 -3.15235,1.179688 -1.82422,2.3125 -1.625,-0.441406 -1.32813,2.609375 -0.19531,4.039063 -1.23047,2.019531 -0.14844,4.871094 1.42578,5.066406 1.57812,0.199219 1.57812,0.394531 2.41406,2.613281 0.83594,2.214844 3.69141,-0.05078 3.49609,-2.21875 -0.19921,-2.164062 2.06641,-3.445312 1.76954,-3.148437 0,0 1.96875,-0.789063 0.78906,-0.984375 -1.17969,-0.199219 0,-2.167969 0,-2.167969 l 2.16406,0.199219 c 2.36328,1.769531 3.10156,-2.019531 3.10156,-2.019531 0,0 3.00391,-0.148438 3.05078,-1.871094 0.0508,-1.722656 3.10547,-0.441406 4.53125,-1.671875 1.42579,-1.230469 3.10157,-4.285157 1.77344,-5.613281 -1.33203,1.230468 -3.59375,-1.625 -1.18359,-1.671876 0.36719,-0.0078 0.66015,-0.03906 0.89062,-0.08984 z m 21.58985,18.960937 c 0.11328,0.265625 0.0742,0.605469 -0.0391,0.644532 -0.11328,0.03906 0.79688,0.113281 0.60938,-0.265626 C 148.69531,52.25 148.58203,52.027344 148.31641,52.25 Z m -25.6836,-34.523437 c 0.21875,0.628906 1.03516,1.101562 1.33594,0.882812 0.29688,-0.21875 0.95703,-0.320312 0.43359,-0.820312 -0.46093,-0.4375 -2.16406,-0.804688 -1.76953,-0.0625 z m 31.75781,28.003906 c 0.14844,0.347656 0.0977,0.789063 -0.0508,0.835937 -0.14843,0.05078 1.03516,0.148438 0.78907,-0.34375 -0.2461,-0.488281 -0.39454,-0.785156 -0.73829,-0.488281 z m 8.65625,12.410156 c 0.21875,0.628907 1.03516,1.097657 1.33594,0.878907 0.30078,-0.214844 0.95703,-0.316407 0.4336,-0.816407 -0.46094,-0.4375 -2.16407,-0.800781 -1.76563,-0.06641 z m -3.625,-1.625 c -0.0469,0.04687 -0.10546,0.08203 -0.13671,0.144531 0.0664,0.195313 0.082,0.425782 0.23828,0.582032 -0.0742,0.05859 -0.16407,0.09766 -0.19532,0.195312 -0.0234,0.08984 -0.0625,0.210938 0.0391,0.277344 0.19531,-0.04297 0.41406,-0.117188 0.60156,-0.02734 0.14062,-0.140625 0.39062,-0.144531 0.39062,-0.144531 0.27735,-0.160156 0.25391,-0.496094 0.14454,-0.757813 l 0.0937,-0.167968 c -0.10938,-0.398438 -0.28907,-0.800782 -0.37891,-1.21875 l -0.15234,-0.171875 c -0.0469,0.0039 -0.0937,0.01172 -0.1211,-0.03906 -0.125,0.167969 -0.3125,0.07813 -0.43359,-0.01953 -0.11719,0.02344 -0.24219,0.07422 -0.30469,0.191406 0.14453,0.167969 0.24609,0.304688 0.16016,0.460938 -0.0859,0.15625 -0.0156,0.347656 0.0547,0.433593 0.0625,0.08594 -0.27343,0.128907 0,0.261719 z M 151.08984,55.1875 c 0,0 -1.47656,0.835938 -1.17968,0.984375 0.29296,0.148437 1.57421,0.539063 0.34375,0.738281 -1.23047,0.195313 0.39453,0.835938 0.73828,0.835938 0.34375,0 0.73828,0.6875 0.78906,1.082031 -0.83984,0.640625 1.42578,0.9375 1.375,1.082031 -0.0469,0.148438 -0.39453,1.28125 -0.39453,1.28125 0,0 0.39453,-0.195312 0.59375,0.195313 0.19531,0.394531 0.0977,0.59375 0.0977,0.59375 0,0 0.98438,-0.59375 0.88672,-0.492188 -0.0977,0.09766 -0.24609,0.539063 -0.19922,0.886719 0.34766,-0.05078 0.39454,0.492188 0.10157,1.230469 -0.88672,0.835937 -0.39453,1.082031 0,1.082031 -0.0508,0.492188 -0.34766,1.773438 0.58984,1.28125 0.93359,-0.492188 1.32813,-0.05078 0.44141,0.785156 -0.88672,0.835938 0.34375,0.691406 0.49218,1.183594 -0.24609,0.933594 1.42969,0.6875 1.625,0.04687 0.64063,0.839844 0.64063,-0.886719 0.98438,-0.886719 0.34375,0 1.08203,0 1.32812,-0.34375 0.2461,-0.34375 0.44532,-0.34375 0.74219,-0.394531 0.29297,-0.04687 1.27735,0.101563 1.86719,-0.738281 0.59375,-0.835938 -1.17969,-2.363282 -1.17969,-2.363282 0,0 -1.92187,0.296876 -1.77344,-0.636718 0.14844,-0.9375 -1.52734,-0.789063 -1.625,-1.085938 -0.0977,-0.292968 -0.6875,-1.375 -1.625,-1.425781 -0.4414,-0.789063 -1.375,0 -1.27734,-1.332031 0.0977,-1.328125 -0.14844,-1.375 -0.39453,-1.425782 -0.24609,-0.04687 -0.73828,-0.34375 -0.88672,-0.984374 0.49219,-1.132813 -0.49219,-1.132813 -0.58984,-1.082032 -0.0977,0.04687 -0.2461,2.164063 -0.6875,0.04687 -0.44141,-2.109375 -1.125,-0.335937 -1.17578,-0.140625 z m 50.57032,28.332031 c -0.5,0 -0.35547,1.011719 -0.0547,0.71875 0.30078,-0.296875 0.71875,0.445313 0.71875,0.445313 l 0.375,0.121094 c 0,0 0.35937,-1.011719 0.44922,-0.347657 0.0937,0.660157 0.59375,0.65625 0.67578,0.3125 0.48828,0.05469 0.55469,-1.027343 0.55469,-1.027343 0,0 -0.73829,0.191406 -1.01954,-0.242188 -0.28125,-0.429688 -1.28125,0.367188 -1.69921,0.02344 z m -6.16407,5.289063 c -0.64062,0.09766 -0.14843,0.886718 0.14453,0.589844 0.29688,-0.296876 1.0586,0.222656 1.0586,0.222656 l 0.51953,0.02344 c 0,0 0.14453,-0.886719 0.46484,-0.367187 0.32032,0.515625 0.96094,0.417968 0.96094,0.121094 0.64063,-0.05078 0.39453,-0.933594 0.39453,-0.933594 0,0 -0.88672,0.292968 -1.3789,0 -0.49219,-0.296875 -1.53125,0.542968 -2.16797,0.34375 z m 1.91797,-2.363282 c -0.3125,0 -0.24609,0.589844 0.14844,0.542969 0.39453,-0.04687 1.03125,-0.542969 -0.15234,-0.542969 z m -2.60937,-0.296874 c 0.14843,0.347656 0.0977,0.789062 -0.0508,0.835937 -0.14454,0.05078 1.03515,0.148437 0.78906,-0.339844 -0.2461,-0.496093 -0.39063,-0.792969 -0.73828,-0.496093 z m -12.06641,1.1875 c 0.15625,0.449218 0.0508,0.6875 0.082,0.710937 0.0156,0.0078 0.0508,-0.01953 0.13672,-0.08203 0.30078,-0.214844 2.07422,-0.06641 1.55078,-0.566406 -0.46094,-0.433594 -2.16015,-0.800782 -1.76562,-0.0625 z m -6.83594,0.535156 c 0.50782,-0.175782 -0.0625,-0.832032 0.38282,-0.703125 0.4414,0.132812 -0.008,-0.507813 -0.31641,-0.574219 -0.30859,-0.0625 -0.62891,1.136719 -0.0664,1.277344 z M 135.4375,148.02734 c -0.53906,0.10157 -0.0977,1.67578 0.59375,1.28125 0.6875,-0.39453 0.24219,-1.13281 0.83594,-1.13281 0.58984,0 1.32812,-0.34375 0.34375,-0.54297 -0.98438,-0.19922 -1.72266,0.83985 -1.77344,0.39453 z m -1.76953,-5.36328 c -0.54297,-0.29687 -0.49219,0.6875 -0.78906,1.23047 -0.9375,0.64063 -0.14844,1.72266 -0.0977,1.17969 0.0469,-0.53906 0.83594,-0.73828 0.78516,-1.27735 1.92187,-1.91796 0.19921,-1.28125 0.10156,-1.13281 z m 4.76953,2.5586 c 0.27344,0.39453 0.71094,0.58593 1.22266,0.3164 0.17187,-0.57422 0.17187,-1.13672 -0.0703,-1.51172 -0.34765,-0.16406 -0.73437,0.15235 -1.12109,0.19532 l -0.21875,0.80859 0.1875,0.1875 z m 6.05859,-37.55078 c 0.71094,-0.16016 0.41797,1.72656 1.21875,0.97265 0.80078,-0.7539 -0.0117,-1.79297 -1.21875,-0.96875 z m -2.51953,-3.75782 c 0.15625,0.63672 0.73047,1.11328 0.94531,0.89063 0.21094,-0.21875 0.67579,-0.32031 0.30469,-0.82422 -0.32422,-0.44531 -1.52734,-0.8125 -1.25,-0.0664 z m 2.23047,-2.9375 c 0.72656,-0.2539 -0.0898,-1.191404 0.54688,-1.003904 0.63281,0.183594 -0.0117,-0.730468 -0.44922,-0.820312 -0.4375,-0.08984 -0.89844,1.621096 -0.0937,1.828126 z m 2.76172,3.9375 c 0.0547,0.6875 0.74219,1.07813 1.09766,0.77344 0.35546,-0.30469 1.03515,-0.53906 0.64453,-1.01562 -0.34766,-0.42188 -1.94532,-0.53125 -1.74219,0.24609 z M 60.3125,144.9375 c -0.347656,0.11719 0.347656,0.42969 0.839844,0.77734 0.492187,0.34375 -0.296875,0.88672 -1.171875,1.10157 -0.878907,0.21875 -0.304688,1.26171 -0.05859,1.0625 0.246094,-0.19532 0.394531,-0.0977 0.589844,-0.0977 0.199219,0 1.527343,0.44141 1.527343,-0.19531 0,-0.64063 0.785157,-0.78907 1.277344,-1.12891 0.484375,-0.33984 0.542969,-1.08984 0.496094,-1.51953 -0.04297,-0.42578 -0.59375,-1.04688 -0.832031,-0.71875 -0.242188,0.32422 -1.285157,0.21484 -1.582031,0.36328 -0.292969,0.14453 -0.636719,0.29297 -1.085938,0.35547 z m -6.984375,-0.35547 c 0,0.49219 0.738281,0.19531 0.492187,0.53906 -0.246093,0.34766 0.441407,0.14844 0.589844,-0.0977 0.148438,-0.24219 -0.785156,-0.88282 -1.082031,-0.44141 z m 3.101563,-4.52734 c 0.445312,0.14843 -0.34375,1.08203 0.34375,0.9375 0.6875,-0.15235 0.59375,-0.98828 -0.34375,-0.9375 z m -0.6875,2.25781 C 55.507812,141.87891 55,142.49219 55.050781,142.07422 c 0.05078,-0.42188 -0.460937,0.082 -0.46875,0.36719 -0.01172,0.28906 1.117188,0.40234 1.164063,-0.12891 z m 1.425781,-4.03125 c -0.128907,0.40234 0.03125,0.85156 0.21875,0.80469 0.191406,-0.0508 0.476562,0.0469 0.441406,-0.35157 -0.02344,-0.35156 -0.5625,-0.95312 -0.660156,-0.45312 z m -0.632813,-2.28906 c 0.480469,0.10156 0.347656,-0.67969 0.632813,-0.36719 0.285156,0.3125 0.238281,-0.40234 0.02734,-0.59766 -0.210937,-0.19922 -1.03125,0.58203 -0.65625,0.96485 z m -2.714844,-6.375 c 0,0.49218 0.738282,0.19922 0.492188,0.54297 -0.246094,0.34375 0.445312,0.14843 0.589844,-0.0977 0.148437,-0.24609 -0.785156,-0.88672 -1.082032,-0.44141 z m 1.277344,1.82422 c -0.195312,0.39453 0.05078,0.83593 0.347656,0.78515 0.292969,-0.0469 0.742188,0.0508 0.6875,-0.34375 -0.05078,-0.34375 -0.886718,-0.9375 -1.035156,-0.4414 z M 41.984375,115.74609 c 0.125,-0.45312 0.460937,-0.19921 0.675781,0 0.214844,0.20313 0.01563,-0.60546 0.01563,-0.60546 0,0 -0.01563,-0.50391 -0.539062,-0.10157 -0.523438,0.40625 -0.214844,0.92969 -0.15625,0.70703 z m 0.894531,2.47657 c 0.316406,-0.0625 0.199219,-0.28516 0.15625,-0.50391 -0.03906,-0.22266 -0.441406,0.082 -0.347656,0.10156 0.09375,0.0156 0.207031,0.1211 0.152344,0.17969 -0.05469,0.0586 -0.144532,0.26563 0.03906,0.22266 z m -1.808594,-5.73438 c -0.292968,0.19531 0.09766,0.34375 0.246094,0.34375 0.148438,0 0.148438,0.29688 0.05078,0.44531 -0.09766,0.14844 0.835937,0 0.589843,-0.34375 -0.25,-0.35156 -0.394531,-0.79296 -0.886719,-0.44531 z m -1.675781,-3.39844 c 0.394531,-0.4414 1.480469,-0.19531 2.167969,0 0.6875,0.19922 0.05078,-0.58984 0.05078,-0.58984 0,0 -0.05078,-0.49219 -1.726562,-0.10156 -1.671875,0.39844 -0.683594,0.90625 -0.488281,0.6914 z M 92.214844,74.484375 c -0.246094,-0.492187 -0.246094,0.933594 -0.246094,1.179687 0,0.246094 -0.394531,0.05078 -0.394531,0.542969 0,0.109375 1.046875,0.683594 0.9375,0 -0.199219,-1.230469 0.34375,-0.738281 0.539062,-1.28125 0.410157,-1.113281 -0.636719,-0.78125 -0.835937,-0.441406 z M 76.957031,38.402344 c -0.292969,0.04687 -0.09766,0.636718 0.246094,0.492187 0.34375,-0.148437 0.738281,-0.347656 0.886719,-0.101562 0.148437,0.246093 0,-0.6875 -0.589844,-0.539063 -0.292969,0.07031 -0.347656,0.34375 -0.542969,0.148438 z m 9.453125,-3.125 c 0.01953,-0.117188 -0.101562,-0.15625 -0.238281,-0.09766 -0.05859,0 -0.05859,0.09766 -0.05859,0.214843 0,0.125 0.214844,0.06641 0.296875,-0.113281 z m 2.605469,-0.765625 c 0.05078,-0.296875 -0.246094,-0.394531 -0.589844,-0.246094 -0.148437,0 -0.148437,0.246094 -0.148437,0.542969 0,0.292968 0.542968,0.148437 0.738281,-0.296875 z M 79.664062,23.140625 c -1.179687,-0.144531 -0.6875,0.589844 -0.195312,0.691406 -0.246094,0.04687 -0.05078,0.636719 0.195312,1.03125 0.246094,0.394531 -0.09766,0.9375 -0.296874,1.429688 -0.195313,0.492187 -0.734376,-0.59375 -0.734376,-0.9375 0,-0.34375 -1.429687,-0.492188 -1.132812,0.05078 0.292969,0.542969 -0.246094,1.523438 0.148438,1.820312 -0.148438,1.425782 0.34375,1.328126 0.589843,2.066407 0.246094,0.738281 2.164063,1.722656 2.363281,0.691406 0.195313,-1.035156 1.523438,-0.347656 1.523438,-1.085937 0,-0.738282 0.839844,-0.441407 1.132812,-1.128907 0.296876,-0.691406 0.34375,0.04687 0.691407,-1.035156 0.34375,-1.082031 -0.789063,-1.429687 -0.9375,-0.933594 -0.148438,0.492188 -0.492188,1.277344 -1.179688,1.179688 0.390625,-0.539063 0.246094,-1.132813 0.195313,-1.179688 -0.05078,-0.05078 -0.6875,0.785157 -0.6875,0.144531 0.492187,-1.378906 -0.296875,-1.722656 -0.296875,-1.722656 v -0.292968 c 0,0 0.738281,0.34375 0.441406,-0.492188 C 81.183594,22.597656 80.25,22.894531 79.660156,23.140625 Z m 6.152344,-0.492187 c 0,0 -0.589844,0.09766 -0.441406,0.34375 0.148438,0.246093 0.6875,0.542968 0,0.691406 -0.6875,0.148437 0,0.6875 0,0.6875 L 86.015625,24.125 c 0,0 0.296875,-0.292969 0.738281,0.09766 0.445313,0.394532 1.03125,-0.539062 0.542969,-0.6875 C 86.804688,23.386719 87,23.484375 86.707031,22.699219 86.40625,21.910156 85.816406,22.304688 85.816406,22.648438 Z m 7.039063,-3.839844 c -0.984375,0 -1.722657,0.691406 -0.640625,1.476562 0.789062,0.09766 0.640625,0.394532 0.445312,0.589844 -0.199218,0.199219 0,0.542969 0,0.542969 0,0 -0.984375,0.441406 -1.28125,0.789062 -0.292968,0.34375 0.292969,0.394531 0.789063,0.144531 v 0.738282 c 0,0 -0.835938,0.59375 -1.183594,0.246094 -0.34375,-0.34375 -0.492187,0.542968 0,0.789062 0.492187,0.246094 1.625,0.101562 2.265625,-0.296875 0.492188,0.296875 1.722656,0.445313 1.722656,0.445313 0,0 0.984375,1.378906 1.425782,-0.148438 0.445312,-1.527344 0.05078,-1.277344 0.05078,-1.277344 0,0 0.738281,-1.480468 -0.296875,-1.675781 -1.03125,-0.199219 1.132812,-0.441406 1.132812,-0.441406 l 0.05078,-0.542969 c 0,0 0.292968,-0.984375 0.738281,-0.984375 0.441406,0 0.04687,-1.871094 -1.476563,-1.378906 -1.527344,0.492187 -2.066406,0.246093 -2.066406,0.246093 0,0 -1.132812,0.246094 -0.59375,0.542969 0.550781,0.292969 -1.074219,0.195313 -1.074219,0.195313 z m -12.996094,2.902344 c -0.09766,-0.292969 0.644531,-0.34375 1.085937,0 0.246094,-0.09766 0.148438,-0.6875 0.296876,-1.03125 0.148437,-0.34375 -0.05078,-0.6875 -0.148438,-0.492188 -0.09766,0.199219 -0.542969,0.246094 -0.789062,0.296875 -0.148438,0.144531 -0.6875,0.492187 -1.179688,0.441406 -1.035156,0 0.441406,0.542969 0.738281,0.785157 z m 4.480469,-2.605469 c -1.523438,-0.542969 -1.035156,0 -1.523438,0.195312 -0.640625,0.835938 0.636719,0.394531 0.636719,0.691407 0,0.292968 -0.394531,0.195312 -0.04687,0.492187 0.34375,0.292969 1.476562,-0.394531 0.933594,-0.492187 -0.539063,-0.101563 0,-0.542969 0,-0.886719 z m 5.664062,1.917969 c -0.08984,0.08594 -0.214844,0.09375 -0.34375,0.101562 -0.02344,0.125 0.08203,0.230469 0.136719,0.351562 0.171875,0.03516 0.308594,-0.08984 0.480469,-0.05078 0.07813,-0.09766 0.34375,-0.148437 0.273437,-0.300781 -0.160156,-0.09766 -0.359375,-0.08594 -0.546875,-0.101562 z m -2.609375,-7.136719 c -0.6875,0 0,0.785156 0.296875,0.785156 0.292969,0 0.144532,0.394531 0.734375,0.492187 0.59375,0.101563 0.347657,-0.882812 0.148438,-0.785156 C 88.375,14.476562 88.125,13.886719 87.394531,13.886719 Z m 66.453129,6.84375 c 1.3789,-0.101563 2.36328,0.09766 2.75781,0.09766 0.39453,0 1.27734,-0.296875 1.57422,0 0.29687,0.292969 1.57422,-1.96875 -0.73828,-1.625 -2.3125,0.34375 -1.82032,0.34375 -2.51172,-0.148437 -0.6875,-0.492188 -1.17969,-1.28125 -1.76953,-1.179688 -0.58985,0.09766 -1.67579,-0.691406 -1.47657,-1.183594 0.19532,-0.492187 -1.77343,-0.296875 -2.26562,-0.589844 -0.49219,-0.296874 -1.47656,-1.871093 -2.06641,-1.96875 -0.39453,0.886719 0.49219,2.558594 2.06641,2.65625 0.29687,1.378907 2.16406,2.757813 2.65625,2.757813 0.48828,0 1.76953,1.183594 1.76953,1.183594 z m -16.44141,-6.695313 c -2.75781,3.050782 0.49219,0.785156 0.39453,1.871094 -0.0977,1.082031 1.37891,0.09766 1.27734,0.785156 0.29688,1.476563 3.05469,-0.195312 2.16797,-0.394531 -0.88672,-0.195313 -1.28125,-1.96875 -0.98437,-2.558594 -0.58985,-0.589843 -1.47656,-0.195312 -2.85938,0.296875 z m -3.25,6.59375 c -0.6875,0.691406 0.0977,2.757813 0.98437,2.660156 0.88672,-0.09766 2.26563,-0.492187 2.26563,-0.492187 0,0 0.6875,1.378906 0,1.773437 -0.69141,0.390626 -2.69141,0.21875 -0.0977,1.179688 2.65625,0.984375 3.34766,0.6875 3.54297,0.195312 0.19531,-0.488281 1.08203,-2.164062 1.57422,-2.066406 0.39453,-0.886718 -1.37891,-1.671875 -0.39062,-2.265625 0.98046,-0.589843 0.19531,-2.753906 0.19531,-2.753906 0,0 -1.37891,0.09766 -1.96875,1.082031 -0.58985,0.984375 -1.37891,-0.09766 -1.96875,-0.09766 -0.10156,0.589844 -0.49219,1.082031 -0.49219,1.082031 l -0.39453,-0.886719 c 0,0 -2.75781,-0.09766 -3.25,0.589844 z m -4.92188,23.039063 c -1.08203,-1.082031 -1.57421,0 -0.6875,1.476562 -1.28124,-0.296875 -2.16796,0.789063 -1.08203,0.789063 1.08203,0 3.9375,1.179687 1.37891,1.179687 -2.5625,0 -0.19922,1.378907 0.78516,1.28125 0.98437,-0.09766 0.98437,-0.199219 1.67578,0.09766 0.6875,0.296874 2.0664,-0.296876 2.0664,-0.296876 0,0 0.49219,-1.671874 1.8711,-1.867187 0.58984,-2.363281 -1.67578,-3.449219 -2.26563,-3.25 -0.58984,0.195313 -0.49219,0.6875 -1.17969,0.886719 -0.69531,0.199218 -1.93359,0.335937 -2.5625,-0.292969 z M 77.546875,23.191406 c -0.0625,0.08203 -0.152344,0.08984 -0.242187,0.09766 -0.01953,0.125 0.05859,0.226563 0.09375,0.34375 0.125,0.03516 0.226562,-0.08203 0.347656,-0.05078 0.05469,-0.08984 0.25,-0.140625 0.195312,-0.292969 -0.117187,-0.09766 -0.253906,-0.08594 -0.390625,-0.09766 z m 6.792969,-7.089844 c -0.0625,0.08203 -0.152344,0.08984 -0.246094,0.09766 -0.01563,0.125 0.05859,0.226562 0.09766,0.347656 0.125,0.03516 0.222656,-0.08594 0.347656,-0.05078 0.05469,-0.09375 0.25,-0.144532 0.195313,-0.296875 -0.117187,-0.09375 -0.257813,-0.08594 -0.394531,-0.09766 z m -1.921875,0.445313 c -0.21875,-0.105469 -0.460938,-0.125 -0.6875,-0.199219 -0.140625,0.566406 -0.675781,0.328125 -1.082031,0.296875 -0.132813,0.234375 -0.25,0.08594 -0.492188,0.09766 -0.394531,0.199218 -0.558594,0.46875 -0.394531,0.886718 0.253906,0.265625 0.246093,0.605469 0.492187,0.886719 0.417969,-0.195313 0.660156,-0.648437 0.589844,-1.085937 0.390625,0.222656 0.671875,-0.179688 1.082031,-0.195313 0.148438,0.253906 0.457031,0.242187 0.691407,0.09766 0.01562,-0.28125 0.03125,-0.578125 -0.195313,-0.785156 z m 5.910156,0.589844 c -0.02344,-0.304688 -0.234375,-0.421875 -0.390625,-0.589844 -0.839844,-0.144531 -1.125,0.832031 -1.183594,1.476563 -0.21875,0.03906 -0.199218,0.257812 -0.296875,0.390624 -0.05078,0.425782 -0.128906,0.976563 -0.589843,1.085938 -0.05469,0.449219 0.242187,0.832031 0.589843,1.082031 0.04687,-0.277343 0.367188,-0.21875 0.492188,-0.394531 h 0.296875 c 0.261718,0.359375 0.621094,0.285156 0.785156,-0.09766 0.03906,-0.199219 0.148438,-0.363282 0.296875,-0.492188 -0.08594,-0.08203 0.242187,-0.300781 -0.09766,-0.296875 0.08594,-0.08203 -0.242188,-0.296875 0.09766,-0.296875 0.02734,-0.09375 -0.02734,-0.144531 -0.09766,-0.195312 0.09766,-0.492188 -0.01953,-1.027344 0.296875,-1.476563 L 88.332031,17.136719 Z M 79.222656,40.8125 c -0.0625,0.08203 -0.15625,0.09375 -0.25,0.09766 -0.01563,0.125 0.0625,0.230469 0.101563,0.347656 0.121093,0.03516 0.222656,-0.08594 0.34375,-0.05078 0.05469,-0.09375 0.25,-0.144531 0.195312,-0.296875 C 79.5,40.820312 79.355469,40.828125 79.21875,40.816406 Z m 2.261719,-2.066406 c 0.195313,-0.04687 -0.148437,-0.789063 0.04687,-1.179688 0.199219,-0.394531 0.296875,-0.296875 0.199219,-0.839844 -0.09766,-0.539062 -0.589844,-0.195312 -0.835938,0.05078 -0.02344,0.273437 -0.355469,0.332031 -0.394531,0.589844 -0.296875,-0.08203 -0.515625,0.07812 -0.6875,0.296874 0.164062,-0.03516 0.1875,0.140626 0.292969,0.195313 v 0.296875 c 0.460937,0.21875 0.394531,0.695312 0.296875,1.082031 0.210937,0.355469 0.496094,0.597657 0.886718,0.691407 0.515626,-0.1875 0.480469,-0.742188 0.199219,-1.1875 z m 6.574219,1.746094 c -0.125,-0.664063 -1.550782,0.269531 -2.535156,-0.171876 -0.128907,-0.277343 -0.378907,-0.183593 -0.589844,-0.199218 -0.140625,0.09766 -0.253906,0.203125 -0.199219,0.394531 -0.402344,0.02344 -0.851563,-0.246094 -1.179687,0.199219 -0.429688,0.121094 -0.550782,-0.53125 -0.984376,-0.394532 -0.269531,0.367188 -0.59375,0.441407 -0.984374,0.195313 -0.347657,0.394531 -0.890626,0.917969 -0.394532,1.574219 0.144532,0.199218 1.082032,0.542968 1.15625,-0.02344 0.335938,0.125 0.6875,0.01172 1.03125,0.05078 0.148438,0.160156 0.390625,0.05078 0.542969,0.195312 0.171875,0.269531 0.515625,0.519531 0.589844,0.394531 l 0.222656,-0.222656 c 0.515625,0.4375 -0.05859,0.898437 0,1.378906 0.601563,0.898438 1.335937,1.675781 2.167969,2.363281 -0.34375,1.363282 0.742187,2.65625 2.164062,2.558594 C 88.953125,48.480469 89.375,48.304688 89.261719,48 c -0.75,-0.808594 -0.617188,-1.933594 -0.785157,-2.953125 0.421876,0.324219 0.914063,0.160156 1.375,0.195313 0.746094,-1.1875 0.417969,-3.085938 -0.785156,-3.9375 v -1.378907 c -0.269531,-0.480469 -0.546875,-0.292969 -0.984375,-0.195312 -0.03906,0.394531 0.238281,0.664062 0.394531,0.984375 0.125,0.257812 -0.28125,-0.125 -0.414062,-0.21875 z m 7.898437,1.996093 c -0.01172,-1.0625 -0.566406,-2.0625 -0.390625,-3.152343 C 95.125,38.65625 94.792969,37.820312 94.777344,36.972656 95.257812,36.664062 95.8125,36.542969 96.351562,36.382812 96.203125,35.867188 96.378906,35.3125 96.15625,34.808594 95.75,34.632812 95.574219,33.996094 94.972656,34.214844 95.050781,33.878906 94.363281,34.054688 94.578125,33.625 v -1.769531 c 0.136719,0.09375 0.5,0.203125 0.445313,0.390625 0.917968,-0.160156 1.441406,0.691406 1.523437,1.578125 0.722656,-0.535157 0.574219,-1.558594 0.59375,-2.363281 -0.421875,-0.234376 -0.753906,-0.5625 -0.984375,-0.984376 -0.488281,0.136719 -0.914062,-0.191406 -1.378906,-0.199218 v -1.574219 c -0.144532,-0.371094 -0.648438,-0.01953 -0.789063,-0.394531 -0.136719,-0.359375 -0.128906,-0.75 -0.394531,-1.179688 H 93.003906 C 92.164062,26.125 90.652344,26.367188 89.460938,26.539062 c -0.621094,0.382813 -0.945313,1.027344 -1.378907,1.574219 -0.773437,-0.214843 -1.292969,-0.988281 -2.167969,-0.984375 -0.234374,0.230469 -0.269531,0.617188 -0.589843,0.785156 -0.08203,0.546876 0.335937,1.027344 0.199219,1.578126 h -0.394532 c 0.113282,0.378906 -0.457031,0.07031 -0.394531,0.390624 -0.179687,0.777344 0.160156,1.199219 0.789063,1.578126 0.429687,-0.226563 0.925781,-0.226563 1.378906,-0.394532 -0.246094,0.285156 0.4375,0.109375 0.195312,0.394532 0.515625,0.113281 0.941406,-0.171876 1.378906,-0.394532 0.535157,-0.148437 0.855469,0.226563 1.179688,0.589844 0.101562,0.363281 -0.121094,0.660156 -0.195312,0.984375 0.496093,0.136719 0.855468,0.390625 1.179687,0.789063 0.01172,0.5625 -0.40625,1.011718 -0.394531,1.574218 0.460937,0.558594 0.972656,0.144532 1.578125,0.199219 -0.625,0.277344 -1.582031,0.25 -1.378907,1.179687 0.628907,-0.01953 0.183594,0.554688 0.589844,0.789063 -0.355468,0.558594 -0.136718,1.179687 -0.195312,1.769531 -0.02734,0.316406 -0.308594,0.503906 -0.394532,0.789063 -0.203124,0.660156 -0.542968,0.625 -0.394531,1.179687 0.253907,-0.109375 0.246094,0.570313 0.589844,0.199219 v 0.589844 c 0.414063,0.421875 0.789063,0.835937 0.984375,1.378906 0.09766,0.269531 0.355469,0.339844 0.542969,0.441406 0.285156,-0.03516 0.476562,-0.316406 0.785156,-0.292969 0.589844,0 1.476563,0.539063 1.722656,0.04688 0.257813,-0.496094 0.847657,-0.644532 1.292969,-0.792969 z m -5.246093,25.550781 c 0.191406,0.0039 0.320312,-0.132812 0.488281,-0.109374 0.191406,-0.289063 0.292969,-0.746094 0,-1.011719 -0.144531,-0.128907 -0.179688,-0.304688 -0.128907,-0.515625 -0.03516,-0.07031 -0.07422,-0.15625 -0.203124,-0.167969 -0.476563,-0.03125 -1.03125,-0.203125 -1.410157,0.285156 -0.441406,0.835938 -0.929687,1.667969 -1.589843,2.28125 0.07812,0.269531 -0.300782,0.316407 -0.222657,0.585938 -0.207031,0.02344 -0.347656,-0.121094 -0.5,-0.246094 0.09766,0.566406 -0.5625,0.808594 -0.464843,1.375 -0.3125,0.02734 -0.363282,0.285156 -0.394532,0.570313 -0.914062,0.152343 -1.78125,0.523437 -2.671875,0.777343 0.01172,0.324219 -0.5,0.164063 -0.398437,0.570313 l -0.34375,-0.02734 c 0.167968,0.566406 -0.148438,0.988281 -0.136719,1.601562 -0.230469,-0.269531 -0.136719,0.4375 -0.363281,0.167969 -0.121094,0.742188 -0.429688,1.429688 -0.535156,2.175781 0.695312,0.429688 1.742187,0.05859 2.308593,-0.609374 0.308594,0.121093 0.585938,-0.07422 0.878907,-0.125 0.726562,0.625 1.628906,0.03516 2.394531,0.40625 l 0.363281,-0.167969 c -0.05469,0.230469 0.04297,0.417969 0.121094,0.613281 0.07031,0.148438 -0.238282,0.371094 -0.06641,0.328125 -0.460938,0.175781 -0.546876,0.117187 -1.019532,0.183594 -0.503906,0.574219 -1.152344,0.855469 -1.828125,1.054687 0.808594,0.867188 1.605469,-0.492187 2.464844,-0.394531 0.417969,-0.867187 1.394531,-1.117187 2.171875,-1.023437 1.03125,-0.917969 1.84375,-2.359376 1.550781,-3.898438 -0.519531,0.07422 -0.8125,-0.484375 -1.136719,-0.90625 l -0.34375,-0.03125 C 89.4375,71.367188 89.269531,70.785156 88.75,70.691406 c -0.179688,-0.46875 0.04297,-0.53125 0.06641,-0.800781 0.277344,0.28125 0.453125,-0.253906 0.707032,-0.140625 0.53125,-0.4375 0.488281,-1.726562 1.183593,-1.707031 z m 56.847652,-3.140624 c -0.14062,0.125 -0.3125,0.230468 -0.39062,0.417968 0.18359,0.546875 0.22265,1.214844 0.66797,1.652344 -0.20313,0.171875 -0.46485,0.285156 -0.5586,0.566406 -0.0547,0.257813 -0.16797,0.59375 0.1211,0.785156 0.55468,-0.117187 1.17578,-0.339843 1.71484,-0.07422 0.40625,-0.410156 1.11328,-0.414063 1.11328,-0.414063 0.79688,-0.460937 0.73438,-1.421875 0.41406,-2.164062 l 0.27344,-0.484375 c -0.3164,-1.136719 -0.82422,-2.289063 -1.08203,-3.480469 l -0.44531,-0.488281 c -0.125,0.01172 -0.25781,0.03125 -0.33594,-0.109375 -0.36328,0.476562 -0.89844,0.21875 -1.24219,-0.05859 -0.34375,0.06641 -0.69531,0.210937 -0.87109,0.546875 0.41406,0.484375 0.70703,0.878906 0.46484,1.320312 -0.24609,0.445313 -0.0508,0.984376 0.14453,1.230469 0.19922,0.246094 -0.75781,0.371094 0.0195,0.753907 z m 49.41407,20.21875 c 0.15625,0.05469 0.28125,0.28125 0.44921,0.203124 0.14063,-0.210937 0.20313,-0.554687 0.19922,-0.914062 -0.1875,-0.203125 -0.39062,-0.121094 -0.55078,0.101562 -0.19922,0.3125 -0.0977,0.609376 -0.0977,0.609376 z m -18.90625,-6.496094 h -0.19532 v 0.195312 c 0.17969,0.117188 0.23047,0.285156 0.19532,0.492188 -0.21485,0.0078 -0.21094,0.148437 -0.19532,0.296875 0.10157,0.117187 0.21875,0.210937 0.39453,0.195312 -0.004,0.25 -0.29296,0.414063 -0.19921,0.691407 0.22656,0.128906 0.32812,0.175781 0.49218,0.394531 0.51953,0.125 1.04688,0.101562 1.57422,0.09766 -0.0273,0.09375 0.0312,0.148437 0.10156,0.195313 h -0.19921 c -0.0391,0.175781 -0.25782,0.277343 -0.19532,0.492187 0.0937,-0.02734 0.14844,0.03125 0.19532,0.09766 v 0.199219 c 0.375,0.01172 0.66015,0.253906 0.98437,0.394531 -0.51562,0.476563 -0.4375,1.226563 -0.0977,1.769531 -0.0937,0.445313 -0.0156,0.828126 0,1.28125 -0.19531,0.132813 -0.0625,0.328126 -0.0977,0.492188 0.12109,0.06641 0.11719,0.179688 0.0977,0.296875 0.14454,0.207031 0.40625,0.167969 0.58985,0.292969 0.22265,-0.398438 0.54297,-0.453125 0.98437,-0.394532 0.0469,-0.382812 0.4961,-0.242187 0.6875,-0.492187 0.0859,-0.492187 -0.0234,-1.070313 -0.49218,-1.375 -0.0703,-0.425781 0.14453,-0.871094 -0.0977,-1.28125 -0.22656,0.05078 -0.44141,-0.03906 -0.49219,-0.296875 0.12891,-0.617188 -0.26172,-1.160156 -0.6875,-1.574219 -0.34375,-0.101562 -0.60547,-0.160156 -0.88672,-0.394531 -0.23437,-0.476562 0.0703,-1.054688 -0.29297,-1.476562 -0.44531,0.125 -0.70703,-0.164063 -0.59375,-0.589844 -0.28515,-0.246094 -0.64453,-0.230469 -0.98437,-0.296875 0.0273,0.09766 -0.0273,0.148437 -0.0977,0.199219 -0.17578,-0.03125 -0.3125,0.148437 -0.49609,0.09375 z m -42.4336,66.253906 -0.19531,0.10156 v 0.49219 c 0.3125,0.0547 0.5625,0.26953 0.88672,0.19531 0.28515,-0.20312 0.40625,-0.53515 0.39453,-0.88281 -0.36719,-0.19531 -0.76953,-0.11328 -1.08594,0.0977 z M 35.808594,123.45313 c 0.347656,-0.60547 -2.5625,-0.48047 -3.011719,-0.0625 0.101563,0.33984 0.199219,0.68359 0.386719,0.99218 0.3125,0.10938 0.6875,0.0156 0.9375,0.3086 0.171875,-0.0664 0.332031,0.23047 0.503906,0.0117 0.328125,0.34765 0.878906,0.11718 1.207031,0.46875 0.226563,0.0664 0.457031,0.11328 0.695313,0.0508 l 0.105468,-0.47657 c -0.285156,-0.44531 -0.753906,-0.72656 -0.824218,-1.28906 z m 15.164062,7.08984 0.960938,0.21484 c 0.226562,-0.46094 0.351562,-0.93359 0.324218,-1.4414 L 51.96875,129.25 c -0.289062,-0.31641 -0.753906,-0.46094 -1.15625,-0.25391 -0.421875,-0.38672 -1,0.0273 -1.503906,-0.0312 -0.3125,0.21094 -0.3125,0.85157 0.277344,0.89844 0.589843,0.0508 0.933593,0 0.886718,0.24609 -0.05469,0.25 -0.08203,0.77344 0.496094,0.4375 z M 40.15625,126.12891 c 0,0 -0.414062,-0.25391 -0.46875,-0.60938 -0.34375,-0.32031 -0.765625,-0.41406 -1.175781,-0.16015 -0.230469,0.47656 0.05859,0.90625 0.203125,1.35546 0.1875,0.16407 0.402344,0.29688 0.609375,0.4375 0.273437,0.21094 0.675781,0.12891 0.917969,0.40625 0.4375,-0.0742 0.875,-0.0156 1.3125,-0.0117 0.08984,0.2539 0.277343,0.43359 0.472656,0.60937 0.210937,0.0273 0.417968,0.008 0.617187,-0.0664 0.121094,0.33203 0.457031,0.47657 0.640625,0.75 l 0.386719,0.082 c 0.140625,-0.0898 0.328125,-0.0664 0.449219,-0.20312 0.550781,-0.0117 1.109375,0.26172 1.621094,-0.043 0.617187,0.10938 1.207031,0.35938 1.847656,0.30859 0,0 0.128906,-0.35156 0.492187,-0.39453 0.0625,-0.42187 0.175781,-1.03125 0.734375,-1.04687 0.316406,-0.004 -0.113281,-0.68359 -0.449218,-0.70313 -0.253907,-0.40234 -0.355469,-0.85937 -0.925782,-0.8125 -0.03906,-0.20312 0,-0.41406 -0.06641,-0.61718 -0.761719,-0.19141 -1.511719,-0.63672 -1.921875,-1.33594 -0.265625,-0.043 -0.464844,-0.27344 -0.75,-0.26563 -0.09766,-0.0703 -0.195313,-0.14062 -0.246094,-0.25781 -0.523437,0.28516 -1.121093,-0.13281 -1.675781,-0.16797 0.01172,0.52344 -1.535156,0.19922 -1.21875,0.47657 0.394531,0.34375 0.730469,0.91406 0.589844,1.08203 -0.246094,0.29687 0.04687,1.02734 0.246094,1.07812 -0.542969,0.30078 -1.070313,0.0391 -1.601563,-0.0508 -0.144531,0.26953 -0.445313,0.0234 -0.644531,0.15625 z m 2.488281,-16.84375 c -0.07422,0.0117 -0.160156,-0.14844 -0.296875,-0.0977 -0.136718,0.50781 0.589844,1.25391 -0.195312,1.47656 v 0.19922 l 0.195312,0.19531 h 0.199219 c 0.207031,-0.19531 0.351563,-0.39453 0.296875,-0.6914 0.160156,0.0312 0.210938,-0.10547 0.292969,-0.19531 -0.285157,-0.0195 -0.171875,-0.33985 -0.195313,-0.49219 -0.144531,0.12109 -0.05469,-0.21875 -0.199218,-0.0977 -0.0625,-0.0781 0.105468,-0.23828 0,-0.29687 h -0.101563 z m -3.542969,2.07031 c 0.148438,-0.49219 -0.691406,-0.78906 -0.886718,-0.29688 -0.539063,0.0469 -0.660156,0.50782 -0.589844,0.98438 0.296875,0.16406 0.296875,0.42187 0.492188,0.6875 0.527343,-0.0391 1.082031,0.12109 1.574218,-0.19531 v -0.6875 c -0.199218,-0.16407 -0.472656,-0.23828 -0.589844,-0.4961 z m -6.984374,0.53516 c 0,0 -1.238282,1.03906 -1.726563,1.1875 l -0.382813,-0.0977 -0.242187,0.95312 c 0.519531,0.60938 1.394531,1.0625 2.242187,0.77344 l 0.09766,-0.3789 1.90625,0.48437 c 0.05469,-0.14453 -0.105469,-0.48047 0.289062,-0.33203 0.421875,0.42578 0.445313,1.41406 1.28125,1.34375 l 0.285157,0.47656 c 0.355468,0.1836 0.867187,0.0156 1.097656,0.48438 l -0.09766,0.38281 0.378906,0.0977 c -0.230469,0.43359 0.179687,0.82031 0.08984,1.24218 -0.394532,0.41016 -0.699219,0.72657 -1.246094,0.89844 -0.171875,0.38672 -0.148438,0.78906 -0.101563,1.19531 0.757813,0.42188 1.511719,0.85938 2.382813,1.01563 0.207031,-0.0586 0.40625,-0.14063 0.625,-0.0469 1.023437,0.75782 2.308594,0.78907 3.480468,0.6875 0.257813,-0.43359 0.730469,-0.67968 0.722657,-1.23828 -0.359375,-0.0312 -0.507813,-0.48828 -0.90625,-0.43359 -0.703125,0.46484 -1.464844,-0.0391 -2.195313,-0.15625 -0.621094,-0.69531 -0.507812,-1.63281 -0.800781,-2.4375 l -1.335937,-0.34375 c -0.304688,-0.76953 0.08203,-1.71485 -0.609376,-2.39063 -1.515624,-0.65234 -2.214843,-2.0625 -2.75,-3.54687 -0.871093,-0.35938 -1.675781,-0.3125 -2.484374,0.1875 z m -16.695313,37.02343 c -0.6875,-0.19531 -1.179687,0.39453 -0.785156,0.78906 0.394531,0.39454 1.179687,1.17969 0.292969,0.98438 -0.882813,-0.19531 -1.386719,0.91797 -0.882813,1.08203 0.589844,0.19922 1.375,-0.29297 2.066406,-0.19531 0.390625,-0.39453 0,-2.06641 -0.691406,-2.65625 z m 44.894531,74.23438 -0.175781,0.22656 C 25.058594,202.61719 1.507812,164.23828 1.507812,120.32422 c 0,-46.320314 26.207032,-86.488282 64.511719,-106.304689 l 0.699219,0.214844 c 0.394531,0.6875 -0.101562,1.179687 -0.789062,1.96875 -0.6875,0.789063 -1.179688,1.96875 -0.886719,2.65625 0.296875,0.691406 -2.066407,1.085937 -2.855469,1.28125 -0.785156,0.199219 -2.066406,0.589844 -2.460938,3.445313 -0.394531,2.855468 -1.96875,1.183593 -2.363281,1.183593 -0.390625,0 -1.671875,2.164063 -2.753906,2.066407 -1.085937,-0.09766 -2.265625,0.589843 -1.96875,1.476562 0.292969,0.886719 -1.28125,1.675781 -2.265625,1.476562 0.09766,1.871094 -1.183594,1.675782 -1.183594,1.675782 0,0 -0.195312,1.277344 -2.261718,1.671875 -2.070313,0.394531 -1.476563,0.492187 -1.773438,1.773437 -0.296875,1.277344 -2.855469,0.789063 -2.953125,2.65625 -0.09766,1.871094 -1.644531,-0.292968 -2.660156,3.152344 -0.492188,1.671875 -2.164063,2.164062 -2.753907,2.066406 -0.59375,-0.09766 -2.5625,1.96875 -2.460937,3.25 -0.691406,0.394532 -2.265625,-0.199218 -1.773437,1.378906 l -1.378907,0.292969 c 0,0 0.6875,2.757813 -1.28125,3.25 -1.96875,0.492188 -2.753906,1.871094 -2.753906,4.527344 0,1.183594 -3.25,0.296875 -3.054687,0.59375 0.199218,0.292969 0,1.375 0,1.375 0,0 -1.476563,-1.574219 -0.6875,2.265625 -0.492188,1.675781 -2.5625,0.199219 -1.773438,2.757812 0.789062,2.558594 -0.6875,-1.28125 -1.574219,4.332032 -0.984375,0.984375 0.394531,2.460937 -1.28125,3.152344 0.492188,1.472656 -0.292969,2.753906 -1.574219,3.738281 -0.492187,1.183593 0.984376,0.589843 -1.773437,2.066406 0,0.492187 -0.492187,1.773437 -1.179687,2.167969 -0.652344,0.371094 -1.574219,3.148437 -1.378907,4.132812 0,0 -0.886719,0.886719 -0.589843,1.183594 0.292968,0.292969 0.195312,0.6875 -0.492188,1.179688 -0.6875,0.492187 0,1.476562 0,1.476562 l -0.589844,0.691406 c 0,0 0.394532,0.984375 0,1.378906 -0.394531,0.394532 -0.199218,1.871094 0.292969,2.164063 0.492187,0.296875 0.691406,-0.492187 0.691406,-0.492187 0,0 -0.199219,-1.277344 0.195313,-1.277344 0.394531,0 0.394531,-0.789063 0.394531,-0.789063 0,0 0.296875,-1.96875 0.789063,-1.96875 0.492187,-0.886719 0.449218,-2.171875 0.492187,-3.050781 0.09766,-1.972656 0.882813,-2.363281 0.882813,-2.363281 l 0.222656,-1.207031 c 0,0 0.863281,-1.648438 1.355468,-1.648438 0.492188,0 0.785157,0 0.589844,0.394531 -0.199218,0.390625 -0.984375,-0.101562 -1.28125,1.574219 0.101563,0.886719 -0.195312,1.671875 -0.195312,1.671875 0,0 -0.691406,0.589844 -0.691406,1.183594 0,0.589843 0.394531,2.066406 0.101562,2.363281 -0.296875,0.292969 -0.886719,0.292969 -1.082031,2.953125 -0.394531,0.785156 -1.085938,0.589844 -0.59375,2.855469 -0.6875,0.984375 -0.292969,2.363281 0.691406,3.148437 0.984375,0.789063 0.195313,1.871094 -0.789063,1.96875 v 0.984375 c -1.476562,-0.589844 -0.691406,1.183594 -0.589843,1.574219 -0.789063,0.394531 -1.378907,1.578125 -0.589844,1.378906 0.785156,-0.195312 0.195313,0.984379 0.195313,0.984379 0,0 -1.082032,2.36328 -0.789063,2.95703 0.296875,0.58984 0.199219,2.35937 0.199219,2.35937 h 0.886718 c 0,0 0.492188,1.08594 0,1.77344 -0.492187,0.69141 0.589844,1.28125 0.785157,1.67578 0.199219,0.39063 0.296875,0.88281 0,1.375 -0.292969,0.49219 0.886719,1.37891 0.492187,2.16797 -0.394531,0.78516 -0.09766,2.36328 0.691406,2.55859 0.785157,0.19922 0.984376,0.98438 2.066407,0.69141 1.082031,-0.29687 0.589843,1.57422 0.589843,1.57422 0,0 1.082032,1.57422 0.789063,2.06641 0.195313,0.49218 1.179687,0.49218 1.179687,0.49218 0,0 -0.886718,1.28125 -0.589843,1.77344 0.296875,0.49219 0.394531,1.96875 0.394531,1.96875 l 0.984375,0.49219 c 0,0 0.492187,0.88672 0.984375,1.27734 0.492188,0.39453 -0.296875,1.8711 0.789062,1.57813 0.785157,1.08203 0.394532,2.7539 -0.101562,3.05078 -0.488281,0.29687 0.988281,0.82031 0.988281,1.3789 0,1.17969 1.179688,1.57422 1.179688,1.57422 -0.09766,0.29688 -1.28125,0.78906 -0.492188,1.28125 0.789063,0.49219 0.6875,1.27735 1.183594,2.75391 0.589844,0.74219 1.769531,1.08594 0.835937,3.34765 -0.9375,2.26563 0.589844,1.08594 0.640626,1.13282 0.04687,0.0508 -0.542969,0.73828 0.195312,0.49218 0.738281,-0.24609 1.921875,-0.34375 1.921875,0.58985 0,0.9375 0.390625,1.67578 2.164063,1.3789 0.195312,-0.64062 1.359374,-2.30859 1.476562,-0.0977 0.05078,0.93359 0.445312,0.39453 0.445312,0.39453 0,0 -0.230468,1.12109 0.441407,1.625 0.195312,0.14844 -0.101563,0.88672 -0.101563,0.88672 0,0 0.742188,0.64062 0.445313,1.72265 -0.296875,1.08204 0.984375,0.29297 0.738281,1.625 -0.246094,1.32813 0.445312,1.27735 0.445312,1.27735 0,0 -0.585937,0.5039 -0.789062,2.75781 -0.148438,1.625 -1.132812,0.24609 -2.757812,1.57422 0.34375,0.83984 -0.738282,1.32812 -1.179688,1.57422 -0.445312,0.24609 -0.839844,0.64062 -0.09766,1.47656 -0.347656,0.73828 -2.511719,0.78906 -1.035156,2.66016 -1.082032,0.58984 -0.179688,1.53515 -0.05078,2.41015 0.199219,1.33203 -2.117187,1.03516 -0.195312,4.1875 l 1.230468,-0.19922 c 0,0 -0.589843,1.33204 -0.9375,1.47657 -0.34375,0.14843 0.9375,2.46093 1.773438,2.60937 0.835938,0.14844 2.019531,1.82031 1.476562,2.90625 0.542969,0.29297 1.28125,1.47656 0.984376,2.26172 -0.292969,0.78906 0.542968,2.07031 0.542968,2.07031 0,0 1.574219,1.86719 2.214844,2.16407 -1.132812,1.23046 1.183594,2.80468 1.773438,2.75781 0.589843,-0.0508 -0.839844,2.80469 3.542968,4.52734 0.148438,2.46094 2.832032,1.86719 3.496094,4.03516 0.738281,2.41406 3.148438,2.3164 3.148438,2.3164 0,0 1.476562,0.73829 1.035156,2.3125 0.933594,0 1.03125,0.14844 0.984375,0.39454 -0.05078,0.24609 -1.183594,1.3789 -1.183594,1.3789 0,0 1.625,0.53906 1.035156,2.41016 -0.589843,1.87109 2.609375,0.39453 2.460938,3.25 0.886719,0.83594 -0.441407,3.05078 2.214843,3.6914 -0.984374,1.72266 -0.34375,4.08594 0.886719,4.28125 1.230469,0.19922 -0.835937,3.4961 1.476563,3.69141 v 1.13281 c 0,0 2.019531,-0.34375 2.167968,1.33203 0.144532,1.67188 2.164063,2.16407 1.476563,2.85547 -0.695313,0.69922 0.238281,1.23828 0.484375,1.28907 z m 0,0"
         id="path30"
         inkscape:connector-curvature="0" />
    </clipPath>
    <radialGradient
       id="radial1"
       gradientUnits="userSpaceOnUse"
       cx="358.48999"
       cy="363.64999"
       fx="358.48999"
       fy="363.64999"
       r="357.42001"
       gradientTransform="matrix(0.48072818,0,0,0.48072499,0.243944,-0.23455876)">
      <stop
         offset="0"
         style="stop-color:rgb(21.960784%,59.607843%,83.137255%);stop-opacity:1;"
         id="stop33" />
      <stop
         offset="0.3901"
         style="stop-color:rgb(21.960784%,59.607843%,83.137255%);stop-opacity:1;"
         id="stop35" />
      <stop
         offset="0.989"
         style="stop-color:rgb(9.411765%,27.843137%,59.215686%);stop-opacity:1;"
         id="stop37" />
    </radialGradient>
  </defs>
  <g
     id="surface1"
     transform="matrix(0.62405329,0,0,0.62405743,-0.15223404,0.50659177)"
     style="stroke-width:1.60242188">
    <g
       clip-path="url(#clip1)"
       id="g46"
       style="clip-rule:nonzero;stroke-width:1.60242188"
       transform="translate(0,-0.5761422)">
      <g
         clip-path="url(#clip2)"
         id="g44"
         style="clip-rule:nonzero;stroke-width:1.60242188">
        <path
           style="fill:url(#radial0);fill-rule:nonzero;stroke:none;stroke-width:1.60242188"
           d="M 1.507812,0.859375 H 238.96094 V 239.78516 H 1.507812 Z m 0,0"
           id="path42"
           inkscape:connector-curvature="0" />
      </g>
    </g>
    <g
       clip-path="url(#clip3)"
       id="g52"
       style="clip-rule:nonzero;stroke-width:1.60242188"
       transform="translate(0,-0.5761422)">
      <g
         clip-path="url(#clip4)"
         id="g50"
         style="clip-rule:nonzero;stroke-width:1.60242188">
        <path
           style="fill:url(#radial1);fill-rule:nonzero;stroke:none;stroke-width:1.60242188"
           d="M 1.507812,2.8125 H 238.96094 V 239.78516 H 1.507812 Z m 0,0"
           id="path48"
           inkscape:connector-curvature="0" />
      </g>
    </g>
    <path
       style="fill:#175cab;fill-opacity:1;fill-rule:nonzero;stroke:none;stroke-width:1.60242188"
       d="m 203.07422,42.501983 c 0.3789,-0.101563 0.40625,0.496094 0.78906,0.394531 -0.14453,0.601563 0.125,1.027344 0.58984,1.378906 -0.19921,0.90625 0.28125,1.546876 0.58985,2.359376 0.3789,-0.152344 0.55859,0.1875 0.78906,0.394531 0.62109,-0.410157 0.83594,-1.386719 0.78516,-2.164063 -0.28516,0.02344 -0.47657,-0.328125 -0.78516,-0.199218 -0.25781,-0.566407 -0.20312,-1.171876 -0.19922,-1.769532 -0.93359,-0.339844 -0.33984,-1.25 -0.78515,-1.96875 -0.72266,0.08984 -1.44532,-0.289062 -2.16797,0.394532 -0.38672,0.488281 -0.0937,1.371093 0.39843,1.175781 z m 0,0"
       id="path54"
       inkscape:connector-curvature="0" />
    <path
       style="fill:#175cab;fill-opacity:1;fill-rule:nonzero;stroke:none;stroke-width:1.60242188"
       d="m 203.66406,47.033233 c -0.19531,-1.378906 -2.55859,-2.167969 -1.375,0.984375 -0.98828,0.785156 -1.18359,2.757812 1.96875,2.757812 -0.59375,1.375 1.76953,2.261719 1.57422,3.34375 -0.19922,1.085938 0.49219,1.183594 1.17969,1.183594 0.6914,0 2.16797,0.195313 2.16797,1.574219 0.78515,-0.296875 2.0664,0.09766 1.67187,1.871094 -0.39453,1.773437 1.57813,1.671875 1.8711,1.671875 0.29687,0 2.24609,4.03125 3.34765,0.101562 0.69141,-2.460937 -1.3789,-1.675781 -1.3789,-1.675781 0,0 -0.29297,-2.066406 -0.98438,-1.96875 -0.6875,0.09766 -0.49219,-1.871094 -1.27734,-1.96875 -0.78907,-0.09766 -1.08594,-0.09766 -1.47657,-0.789063 -0.98828,0.296876 -1.48046,-3.34375 -2.75781,-3.050781 -1.28125,0.296875 -1.96875,-0.6875 -1.96875,-0.6875 0,0 -2.16797,-0.492187 -1.57422,-1.96875 0.58985,-1.484375 -0.98828,-1.386719 -0.98828,-1.386719 z m 0,0"
       id="path56"
       inkscape:connector-curvature="0" />
    <path
       style="fill:#175cab;fill-opacity:1;fill-rule:nonzero;stroke:none;stroke-width:1.60242188"
       d="m 62.089844,29.111358 c -0.113282,0.769531 -0.710938,0.894531 -1.378906,0.789062 v 1.378907 c -0.210938,0.230469 -0.441407,0.425781 -0.785157,0.394531 0.292969,0.324219 0.675781,0.699219 1.179688,0.589844 0.613281,-0.511719 1.410156,-0.820313 2.167969,-0.789063 -0.04297,-0.398437 0.296874,-0.640625 0.394531,-0.984375 0.664062,-0.441406 1.617187,0.125 1.96875,-0.789062 0.140625,-0.597656 -0.128907,-1.027344 -0.589844,-1.375 -0.40625,0.0078 -0.761719,0.300781 -1.183594,0.195312 -0.01172,-0.652344 -0.523437,-1.136718 -0.589843,-1.769531 h -0.789063 v 1.375 c -0.191406,-0.05469 -0.296875,0.0625 -0.394531,0.199219 z m 0,0"
       id="path58"
       inkscape:connector-curvature="0" />
    <path
       style="fill:#175cab;fill-opacity:1;fill-rule:nonzero;stroke:none;stroke-width:1.60242188"
       d="m 58.742188,34.232452 c -0.132813,0 0.128906,0 0,0 -0.105469,0.183594 -0.238282,0.359375 -0.195313,0.589844 0.703125,-0.0039 1.414063,-0.109376 1.96875,0.394531 -0.367187,0.269531 -0.128906,0.65625 -0.199219,0.984375 0.140625,0.09766 0.253906,0.203125 0.199219,0.394531 1.335937,0.355469 0.949219,-1.195313 0.984375,-1.96875 -0.304688,-0.503906 -0.863281,-0.394531 -1.378906,-0.394531 0.05469,-0.191406 -0.05859,-0.296875 -0.195313,-0.394532 -0.445312,0.07813 -1.183593,-0.605468 -1.378906,0.195313 z m 0,0"
       id="path60"
       inkscape:connector-curvature="0" />
    <path
       style="fill:#175cab;fill-opacity:1;fill-rule:nonzero;stroke:none;stroke-width:1.60242188"
       d="m 46.527344,64.298858 c -1.371094,0.453125 -1.566406,2.421875 0.207031,2.03125 1.769531,-0.394531 3.058594,-0.8125 3.25,-0.359375 0.195313,0.457031 -0.792969,1.34375 -0.199219,1.246094 0.589844,-0.101563 0.589844,0.589843 -0.394531,1.277343 -0.984375,0.691407 -1.617187,1.476563 -2.433594,2.574219 -1.605469,2.152344 -0.714843,5.992188 1.253907,1.464844 1.96875,-4.53125 2.460937,-3.546875 2.460937,-3.546875 0,0 1.867187,0.09766 0.195313,2.660156 0.492187,0.390625 0.6875,0 1.179687,-0.101562 -1.179687,0.988281 -0.875,5.8125 0.886719,1.28125 0.691406,-1.773438 0.515625,-1.664063 0.515625,-1.664063 1.453125,-0.503906 1.699219,-3.234375 -1.03125,-3.050781 -0.46875,-1.785156 1.402343,-2.867188 -0.761719,-3.949219 -0.394531,-1.28125 -2.847656,-1.140625 -3.195312,-0.472656 -0.351563,0.660156 -1.742188,0.933594 -1.933594,0.601563 z m 0,0"
       id="path62"
       inkscape:connector-curvature="0" />
    <path
       style="fill:#175cab;fill-opacity:1;fill-rule:nonzero;stroke:none;stroke-width:1.60242188"
       d="m 52.5,75.326202 c -0.867188,0.464844 -1.382812,3.871094 0.238281,1.726562 1.617188,-2.144531 1.28125,-1.894531 1.28125,-1.894531 0,0 0.761719,-1.082031 1.316407,-0.796875 0.554687,0.28125 1.273437,-0.503906 1.414062,-0.78125 0.140625,-0.277344 0.984375,-1.246094 -1.011719,-0.550781 -2,0.691406 -1.601562,1.347656 -2.117187,1.46875 C 53.105469,74.61917 52.296875,74.693389 52.5,75.322296 Z m 0,0"
       id="path64"
       inkscape:connector-curvature="0" />
    <path
       style="fill:#175cab;fill-opacity:1;fill-rule:nonzero;stroke:none;stroke-width:1.60242188"
       d="m 51.359375,47.521514 c -0.492187,0.789063 1.082031,-2.261718 1.28125,-0.394531 0.195313,1.871094 0.195313,2.265625 0.488281,2.5625 0.296875,0.292969 0.492188,1.769531 0,2.460937 -0.488281,0.6875 -0.589844,0.589844 -0.785156,-0.492187 -0.195312,-1.082031 -0.296875,-2.066406 -0.492188,-2.460937 -0.199218,-0.394532 -0.492187,0 -0.589843,0.492187 -0.101563,0.492187 0,1.574219 -0.296875,1.871094 -0.292969,0.292969 -1.574219,-1.082031 -0.886719,-1.871094 0.6875,-0.785156 1.671875,-1.574219 1.277344,-2.164063 z m 0,0"
       id="path66"
       inkscape:connector-curvature="0" />
    <path
       style="fill:#175cab;fill-opacity:1;fill-rule:nonzero;stroke:none;stroke-width:1.60242188"
       d="m 70.3125,22.02542 c -0.148438,-0.296874 -3.054688,0.195313 -0.34375,1.574219 -0.199219,0.640625 0.09766,2.214844 0.933594,0.34375 0.148437,-0.441406 1.035156,-0.542969 1.035156,-0.542969 0.144531,0.542969 0.933594,-0.539062 -0.05078,-1.128906 -0.984375,-0.59375 -0.738281,-1.234375 -0.738281,-1.234375 0,0 -0.839844,0.542969 -0.839844,0.988281 z m 0,0"
       id="path68"
       inkscape:connector-curvature="0" />
    <path
       style="fill:#175cab;fill-opacity:1;fill-rule:nonzero;stroke:none;stroke-width:1.60242188"
       d="m 228.28125,142.1387 v 0.58985 c -0.35547,0.28906 -0.54297,0.71484 -0.58984,1.17968 0.1289,0.13282 0.26171,0.26563 0.39062,0.39454 -0.44531,0.40625 -0.0742,0.92968 -0.19531,1.3789 -0.66016,-0.16797 -1.1211,0.44141 -1.37891,0.98438 -0.15234,0.60547 0.13281,1.02734 0.59375,1.3789 -0.14844,0.9336 0.21875,1.83203 0.19531,2.75782 0.22657,0.21093 0.50391,0.20703 0.78516,0.19531 -0.16797,-1.55078 0.59375,-2.97656 0.59375,-4.52735 0.22656,-0.41796 0.47656,-0.82031 0.78516,-1.18359 h 0.39453 c -0.0703,-0.84375 0.71094,-1.44531 0.39453,-2.35937 -0.51563,-0.1836 -0.79688,-0.64844 -1.17969,-0.98829 -0.32812,0.1875 -0.52344,-0.13671 -0.78906,-0.19531 z m 0,0"
       id="path70"
       inkscape:connector-curvature="0" />
    <path
       style="fill:none;stroke:#c7e8fa;stroke-width:0.34222925;stroke-linecap:butt;stroke-linejoin:miter;stroke-miterlimit:10;stroke-opacity:1"
       d="M 121.2697,14.896536 C 77.726673,7.7363697 48.855537,22.919985 30.3477,41.822355"
       id="path72"
       inkscape:connector-curvature="0" />
    <path
       style="fill:none;stroke:#c7e8fa;stroke-width:0.34222925;stroke-linecap:butt;stroke-linejoin:miter;stroke-miterlimit:10;stroke-opacity:1"
       d="m 120.67986,15.091849 c 17.32815,-3.937506 74.28136,4.77735 93.18373,31.160201"
       id="path74"
       inkscape:connector-curvature="0" />
    <path
       style="fill:none;stroke:#c7e8fa;stroke-width:0.34222925;stroke-linecap:butt;stroke-linejoin:miter;stroke-miterlimit:10;stroke-opacity:1"
       d="M 238.67612,127.5256 C 239.54331,81.201318 199.35966,16.849664 119.30095,14.502004"
       id="path76"
       inkscape:connector-curvature="0" />
    <path
       style="fill:none;stroke:#c7e8fa;stroke-width:0.34222925;stroke-linecap:butt;stroke-linejoin:miter;stroke-miterlimit:10;stroke-opacity:1"
       d="M 58.50399,17.752009 C 67.168065,10.857468 99.609516,6.4277739 121.2697,14.896536"
       id="path78"
       inkscape:connector-curvature="0" />
    <path
       style="fill:none;stroke:#c7e8fa;stroke-width:0.34222925;stroke-linecap:butt;stroke-linejoin:miter;stroke-miterlimit:10;stroke-opacity:1"
       d="m 124.46893,0.3730779 c -2.36329,0.7890636 -4.57813,9.2070444 -3.79298,14.7187711 0,0 6.0547,-12.0586111 14.71877,-13.8320512"
       id="path80"
       inkscape:connector-curvature="0" />
    <path
       style="fill:none;stroke:#c7e8fa;stroke-width:0.34222925;stroke-linecap:butt;stroke-linejoin:miter;stroke-miterlimit:10;stroke-opacity:1"
       d="m 120.67986,15.091849 c 14.57033,-6.3007903 52.12898,-5.3632891 71.42588,9.601576"
       id="path82"
       inkscape:connector-curvature="0" />
    <path
       style="fill:none;stroke:#c7e8fa;stroke-width:0.34222925;stroke-linecap:butt;stroke-linejoin:miter;stroke-miterlimit:10;stroke-opacity:1"
       d="M 165.77367,9.3809031 C 156.51585,6.4277739 133.08613,5.8379295 120.67986,15.091849"
       id="path84"
       inkscape:connector-curvature="0" />
    <path
       style="fill:none;stroke:#c7e8fa;stroke-width:0.34222925;stroke-linecap:butt;stroke-linejoin:miter;stroke-miterlimit:10;stroke-opacity:1"
       d="M 120.97283,14.599661 C 126.09393,8.0019951 138.59785,2.0957367 146.27755,3.1816758"
       id="path86"
       inkscape:connector-curvature="0" />
    <path
       style="fill:none;stroke:#c7e8fa;stroke-width:0.34222925;stroke-linecap:butt;stroke-linejoin:miter;stroke-miterlimit:10;stroke-opacity:1"
       d="M 120.87517,15.091849 C 119.30095,10.564499 116.3986,3.525426 111.47672,0.5722968"
       id="path88"
       inkscape:connector-curvature="0" />
    <path
       style="fill:none;stroke:#c7e8fa;stroke-width:0.34222925;stroke-linecap:butt;stroke-linejoin:miter;stroke-miterlimit:10;stroke-opacity:1"
       d="M 97.050918,2.4902685 C 105.71499,2.2949556 119.10564,11.353562 121.2697,14.896536"
       id="path90"
       inkscape:connector-curvature="0" />
    <path
       style="fill:none;stroke:#c7e8fa;stroke-width:0.34222925;stroke-linecap:butt;stroke-linejoin:miter;stroke-miterlimit:10;stroke-opacity:1"
       d="M 83.265744,6.2324613 C 93.699351,4.4590212 113.19548,8.7910587 121.2697,14.896536"
       id="path92"
       inkscape:connector-curvature="0" />
    <path
       style="fill:none;stroke:#c7e8fa;stroke-width:0.34222925;stroke-linecap:butt;stroke-linejoin:miter;stroke-miterlimit:10;stroke-opacity:1"
       d="M 73.961043,9.6777786 C 45.609441,25.431707 60.031335,58.806753 123.03924,58.806753 c 48.04694,0 77.23839,-34.015672 48.88288,-46.617252"
       id="path94"
       inkscape:connector-curvature="0" />
    <path
       style="fill:none;stroke:#c7e8fa;stroke-width:0.34222925;stroke-linecap:butt;stroke-linejoin:miter;stroke-miterlimit:10;stroke-opacity:1"
       d="m 39.457086,32.224686 c -14.792988,23.734407 11.949237,49.117257 60.941494,55.164141 7.10157,0.875001 14.66799,1.347657 22.64456,1.347657 48.04304,0 94.17201,-25.156284 81.56653,-53.113356"
       id="path96"
       inkscape:connector-curvature="0" />
    <path
       style="fill:none;stroke:#c7e8fa;stroke-width:0.34222925;stroke-linecap:butt;stroke-linejoin:miter;stroke-miterlimit:10;stroke-opacity:1"
       d="m 16.56643,61.513791 c -6.30079,34.261767 43.464905,59.121179 106.47281,59.121179 48.04694,0 109.33219,-22.398473 100.66811,-59.418056"
       id="path98"
       inkscape:connector-curvature="0" />
    <path
       style="fill:none;stroke:#c7e8fa;stroke-width:0.34222925;stroke-linecap:butt;stroke-linejoin:miter;stroke-miterlimit:10;stroke-opacity:1"
       d="M 3.4726611,98.037279 C 11.742204,130.33029 59.98446,152.88111 122.99236,152.88111 c 48.04695,0 113.41813,-22.05472 113.02751,-59.863368"
       id="path100"
       inkscape:connector-curvature="0" />
    <path
       style="fill:none;stroke:#c7e8fa;stroke-width:0.34222925;stroke-linecap:butt;stroke-linejoin:miter;stroke-miterlimit:10;stroke-opacity:1"
       d="m 238.82456,124.57247 c -6.30079,38.59381 -69.3126,58.28134 -117.75017,57.10165 C 55.308672,180.0999 15.433616,163.803 1.6484397,125.20919"
       id="path102"
       inkscape:connector-curvature="0" />
    <path
       style="fill:none;stroke:#c7e8fa;stroke-width:0.34222925;stroke-linecap:butt;stroke-linejoin:miter;stroke-miterlimit:10;stroke-opacity:1"
       d="M 9.4257948,76.920063 C 25.378942,39.11532 73.199322,10.904343 121.2697,14.896536"
       id="path104"
       inkscape:connector-curvature="0" />
    <path
       style="fill:none;stroke:#c7e8fa;stroke-width:0.34222925;stroke-linecap:butt;stroke-linejoin:miter;stroke-miterlimit:10;stroke-opacity:1"
       d="M 1.7500026,127.92014 C 0.960939,85.978668 47.429754,17.060602 121.2697,14.896536"
       id="path106"
       inkscape:connector-curvature="0" />
    <path
       style="fill:none;stroke:#c7e8fa;stroke-width:0.34222925;stroke-linecap:butt;stroke-linejoin:miter;stroke-miterlimit:10;stroke-opacity:1"
       d="M 14.546896,173.99442 C -1.0937517,108.82636 38.656305,36.939537 120.67986,15.091849"
       id="path108"
       inkscape:connector-curvature="0" />
    <path
       style="fill:none;stroke:#c7e8fa;stroke-width:0.34222925;stroke-linecap:butt;stroke-linejoin:miter;stroke-miterlimit:10;stroke-opacity:1"
       d="M 49.402413,215.54135 C -7.703136,142.68969 60.820398,36.36141 120.67986,15.091849"
       id="path110"
       inkscape:connector-curvature="0" />
    <path
       style="fill:none;stroke:#c7e8fa;stroke-width:0.34222925;stroke-linecap:butt;stroke-linejoin:miter;stroke-miterlimit:10;stroke-opacity:1"
       d="M 76.574328,230.90075 C 24.793004,193.5882 56.093829,59.591913 120.67986,15.091849"
       id="path112"
       inkscape:connector-curvature="0" />
    <path
       style="fill:none;stroke:#c7e8fa;stroke-width:0.34222925;stroke-linecap:butt;stroke-linejoin:miter;stroke-miterlimit:10;stroke-opacity:1"
       d="M 120.67986,15.091849 C 83.62512,52.923933 58.457115,220.81089 99.804831,237.34998"
       id="path114"
       inkscape:connector-curvature="0" />
    <path
       style="fill:none;stroke:#c7e8fa;stroke-width:0.34222925;stroke-linecap:butt;stroke-linejoin:miter;stroke-miterlimit:10;stroke-opacity:1"
       d="M 116.74235,239.07654 C 100.39467,238.02576 115.62907,20.146543 120.67986,15.095755"
       id="path116"
       inkscape:connector-curvature="0" />
    <path
       style="fill:none;stroke:#c7e8fa;stroke-width:0.34222925;stroke-linecap:butt;stroke-linejoin:miter;stroke-miterlimit:10;stroke-opacity:1"
       d="M 226.07454,173.79911 C 246.33629,105.2287 213.96515,39.755946 119.8908,14.701223"
       id="path118"
       inkscape:connector-curvature="0" />
    <path
       style="fill:none;stroke:#c7e8fa;stroke-width:0.34222925;stroke-linecap:butt;stroke-linejoin:miter;stroke-miterlimit:10;stroke-opacity:1"
       d="m 191.17215,215.49448 c 71.27744,-69.26182 -0.5,-175.64869 -71.28135,-200.793257"
       id="path120"
       inkscape:connector-curvature="0" />
    <path
       style="fill:none;stroke:#c7e8fa;stroke-width:0.34222925;stroke-linecap:butt;stroke-linejoin:miter;stroke-miterlimit:10;stroke-opacity:1"
       d="M 164.00023,230.80309 C 223.16438,191.08429 204.97295,73.318494 119.8908,14.701223"
       id="path122"
       inkscape:connector-curvature="0" />
    <path
       style="fill:none;stroke:#c7e8fa;stroke-width:0.34222925;stroke-linecap:butt;stroke-linejoin:miter;stroke-miterlimit:10;stroke-opacity:1"
       d="m 119.8908,14.697317 c 44.18756,45.121159 83.60949,198.844033 20.67581,222.750313"
       id="path124"
       inkscape:connector-curvature="0" />
    <path
       style="fill:none;stroke:#c7e8fa;stroke-width:0.34222925;stroke-linecap:butt;stroke-linejoin:miter;stroke-miterlimit:10;stroke-opacity:1"
       d="M 123.67986,239.12342 C 165.68773,236.4281 126.58612,21.396545 119.8908,14.697317"
       id="path126"
       inkscape:connector-curvature="0" />
    <path
       style="fill:none;stroke:#c7e8fa;stroke-width:0.34222925;stroke-linecap:butt;stroke-linejoin:miter;stroke-miterlimit:10;stroke-opacity:1"
       d="m 25.625036,192.20929 c 33.226609,39.08599 150.187714,43.80865 186.469014,3.15235"
       id="path128"
       inkscape:connector-curvature="0" />
    <path
       style="fill:none;stroke:#c7e8fa;stroke-width:0.34222925;stroke-linecap:butt;stroke-linejoin:miter;stroke-miterlimit:10;stroke-opacity:1"
       d="m 76.472766,230.75231 c 19.375026,8.60548 66.875094,9.01955 87.527464,0.0508"
       id="path130"
       inkscape:connector-curvature="0" />
    <path
       style="fill:none;stroke:#000000;stroke-width:0.68123758;stroke-linecap:butt;stroke-linejoin:miter;stroke-miterlimit:3.86360002;stroke-opacity:1"
       d="m 120.23845,239.21326 c 65.57041,0 118.72673,-53.48836 118.72673,-119.46501 0,-31.92583 -12.44923,-60.92587 -32.7266,-82.355587 C 184.61354,14.533254 154.07834,0.2832339 120.23455,0.2832339 54.668046,0.2832339 1.5078147,53.771592 1.5078147,119.74825 c 0,65.97665 53.1602313,119.46501 118.7267353,119.46501 z m 0,0"
       id="path132"
       inkscape:connector-curvature="0" />
    <path
       style="fill:none;stroke:#c7e8fa;stroke-width:0.34222925;stroke-linecap:butt;stroke-linejoin:miter;stroke-miterlimit:10;stroke-opacity:1"
       d="M 9.4765761,163.1155 C 33.847704,208.59212 180.07447,232.42419 231.53548,161.59206"
       id="path134"
       inkscape:connector-curvature="0" />
  </g>
</svg>
