<?xml version="1.0" encoding="UTF-8" standalone="no"?>
<svg
   xmlns:dc="http://purl.org/dc/elements/1.1/"
   xmlns:cc="http://creativecommons.org/ns#"
   xmlns:rdf="http://www.w3.org/1999/02/22-rdf-syntax-ns#"
   xmlns:svg="http://www.w3.org/2000/svg"
   xmlns="http://www.w3.org/2000/svg"
   xmlns:sodipodi="http://sodipodi.sourceforge.net/DTD/sodipodi-0.dtd"
   xmlns:inkscape="http://www.inkscape.org/namespaces/inkscape"
   width="200"
   height="200"
   viewBox="0 0 150 150"
   version="1.1"
   id="svg7"
   sodipodi:docname="poland.svg"
   inkscape:version="0.92.3 (2405546, 2018-03-11)">
  <metadata
     id="metadata13">
    <rdf:RDF>
      <cc:Work
         rdf:about="">
        <dc:format>image/svg+xml</dc:format>
        <dc:type
           rdf:resource="http://purl.org/dc/dcmitype/StillImage" />
        <dc:title></dc:title>
      </cc:Work>
    </rdf:RDF>
  </metadata>
  <defs
     id="defs11" />
  <sodipodi:namedview
     pagecolor="#ffffff"
     bordercolor="#666666"
     borderopacity="1"
     objecttolerance="10"
     gridtolerance="10"
     guidetolerance="10"
     inkscape:pageopacity="0"
     inkscape:pageshadow="2"
     inkscape:window-width="1366"
     inkscape:window-height="715"
     id="namedview9"
     showgrid="false"
     units="px"
     inkscape:zoom="1.475"
     inkscape:cx="50.794434"
     inkscape:cy="112.85626"
     inkscape:window-x="-8"
     inkscape:window-y="-8"
     inkscape:window-maximized="1"
     inkscape:current-layer="svg7" />
  <g
     id="surface1"
     transform="matrix(0.62514365,0,0,0.62514272,0.55234227,-0.27755627)"
     style="stroke-width:1.59963357">
    <path
       style="fill:#dc113a;fill-opacity:1;fill-rule:evenodd;stroke:#dc113a;stroke-width:0.03999084;stroke-linecap:round;stroke-linejoin:round;stroke-miterlimit:4;stroke-opacity:1"
       d="M 8.6934,9.959212 C 8.680054,9.950911 8.658407,9.933658 8.645223,9.920637 8.619018,9.894596 8.615112,9.893131 8.605509,9.905338 8.600952,9.91136 8.593465,9.912825 8.578979,9.910221 8.566935,9.908268 8.552286,9.909732 8.542683,9.913964 8.528686,9.920149 8.525105,9.919824 8.512735,9.909895 8.505085,9.903873 8.495157,9.89134 8.490925,9.882063 8.486531,9.872786 8.474323,9.856998 8.463418,9.846906 8.447793,9.832258 8.440957,9.829328 8.429564,9.832258 8.399779,9.839745 8.339557,9.836978 8.329954,9.827701 8.323932,9.821841 8.311074,9.818749 8.293984,9.818749 H 8.267291 L 8.245806,9.780011 C 8.224485,9.7416 8.224159,9.741274 8.205116,9.744041 8.194699,9.745669 8.180864,9.749575 8.174517,9.75283 8.166379,9.757062 8.158892,9.757062 8.148475,9.752668 8.1405,9.74925 8.123735,9.743716 8.111203,9.740298 8.090695,9.734601 8.088904,9.732811 8.091834,9.720278 8.097693,9.695213 8.077836,9.67324 8.059119,9.683982 8.044308,9.692609 8.006384,9.678774 8.002803,9.663637 8.000688,9.654522 7.99613,9.650942 7.98669,9.650942 7.967972,9.650942 7.911169,9.628481 7.902868,9.617901 7.898311,9.611879 7.897008,9.600648 7.898962,9.583396 7.900752,9.569235 7.900264,9.555889 7.898148,9.55361 7.896032,9.551332 7.894079,9.546449 7.893753,9.542868 7.893428,9.539125 7.892777,9.532289 7.892288,9.527568 7.891963,9.522848 7.88236,9.508363 7.871129,9.495504 7.859736,9.482484 7.845413,9.456767 7.838414,9.437073 7.826696,9.404195 7.824742,9.401754 7.805374,9.397685 7.79398,9.395081 7.778355,9.391663 7.770543,9.390035 7.76273,9.388245 7.754918,9.381897 7.753127,9.376038 7.751337,9.369853 7.743524,9.36383 7.734573,9.361877 7.724644,9.359761 7.716343,9.352763 7.71146,9.342509 7.70674,9.333068 7.699416,9.326558 7.693231,9.326558 c -0.016927,0 -0.05127,0.02653 -0.055013,0.042481 -0.0026,0.010742 -0.00456,0.012532 -0.00781,0.007 -0.00244,-0.00423 -0.00456,-0.013021 -0.00456,-0.019857 0,-0.007 -0.00651,-0.01709 -0.015462,-0.023926 C 7.601759,9.325744 7.591831,9.313537 7.588087,9.305236 7.582391,9.292215 7.577508,9.289774 7.553256,9.287333 7.526726,9.284728 7.524285,9.283101 7.513542,9.26243 7.497917,9.232319 7.486199,9.227599 7.46097,9.241434 7.442578,9.251525 7.439649,9.251688 7.428906,9.244038 7.418327,9.236388 7.416211,9.236388 7.407585,9.244689 c -0.00505,0.00505 -0.011882,0.00912 -0.015137,0.00912 -0.00326,0 -0.00944,0.00553 -0.013835,0.012207 -0.00765,0.011881 -0.0083,0.011881 -0.018392,0.00195 C 7.35013,9.258198 7.349479,9.258198 7.340201,9.270568 7.334342,9.278381 7.3236,9.283752 7.312207,9.284891 7.29707,9.286356 7.290722,9.283426 7.278678,9.27008 7.266959,9.256896 7.260937,9.254129 7.249543,9.256896 7.238638,9.259338 7.231802,9.256733 7.220735,9.245828 7.210481,9.235574 7.200552,9.231343 7.186555,9.231343 c -0.011068,0 -0.026693,-0.00374 -0.034994,-0.0083 -0.017253,-0.0096 -0.029134,-0.00651 -0.032878,0.0083 -0.0013,0.0057 -0.012044,0.015625 -0.023926,0.022135 -0.01709,0.00944 -0.021484,0.014811 -0.021484,0.027019 0,0.0083 -0.00228,0.01888 -0.00488,0.023437 -0.00423,0.007 -0.00667,0.007 -0.018555,1.63e-4 C 7.042185,9.299702 7.03128,9.28896 7.025421,9.280171 7.013376,9.261942 6.992055,9.251362 6.979848,9.257384 6.975453,9.259663 6.958851,9.26422 6.943226,9.267476 6.920928,9.272033 6.913278,9.276427 6.908233,9.287333 6.900908,9.30312 6.906768,9.316792 6.933298,9.345276 c 0.0083,0.00895 0.014974,0.018066 0.014974,0.020508 0,0.00667 -0.011556,0.00976 -0.028646,0.00781 C 6.907419,9.372131 6.899769,9.3762 6.884469,9.392151 6.873727,9.403381 6.864938,9.416077 6.864938,9.420146 c 0,0.00407 -0.00342,0.00879 -0.00765,0.010417 -0.00407,0.00179 -0.00879,0.00976 -0.010579,0.018066 -0.00212,0.010742 -0.00895,0.017578 -0.02474,0.02474 -0.020834,0.00944 -0.022136,0.00944 -0.030925,0 C 6.786161,9.467998 6.779,9.450908 6.775419,9.435608 6.766142,9.395732 6.763212,9.392639 6.743355,9.401917 6.734241,9.406148 6.723173,9.411031 6.718941,9.412822 6.714709,9.414449 6.707222,9.419007 6.702339,9.42275 6.695178,9.428284 6.691434,9.427633 6.682808,9.419007 6.676786,9.41331 6.672554,9.404684 6.673368,9.399801 6.674019,9.394918 6.669299,9.388407 6.662788,9.385315 6.655952,9.38206 6.652209,9.376526 6.653836,9.371968 c 0.00195,-0.0057 -8.13e-4,-0.007 -0.010742,-0.00488 -0.010742,0.00228 -0.014486,0 -0.018392,-0.010905 -0.0026,-0.00749 -0.00342,-0.019857 -0.00163,-0.027344 0.00244,-0.010092 0.00114,-0.01351 -0.00521,-0.01351 -0.00456,0 -0.00846,-0.00391 -0.00846,-0.00863 0,-0.00472 -0.00342,-0.00993 -0.00781,-0.011719 C 6.597362,9.29319 6.593782,9.28635 6.593782,9.279681 6.59362,9.273171 6.591662,9.264218 6.589062,9.259987 c -0.00358,-0.00602 -0.00651,-0.00456 -0.013509,0.007 -0.00488,0.00814 -0.01123,0.014812 -0.01416,0.014812 -0.00277,0 -0.011882,0.00521 -0.020183,0.011556 C 6.525255,9.305399 6.50963,9.304097 6.495958,9.289448 6.484239,9.276753 6.479682,9.280334 6.466661,9.311584 6.459987,9.328023 6.450385,9.34316 6.445664,9.345113 6.432318,9.350647 6.393744,9.330302 6.351751,9.295796 6.340358,9.286356 6.283554,9.283752 6.288925,9.292866 c 0.00407,0.007 -0.018066,0.039226 -0.027018,0.039226 -0.00374,0 -0.00684,-0.00374 -0.00684,-0.00846 0,-0.00456 -0.00293,-0.00846 -0.00651,-0.00879 C 6.24498,9.314676 6.235051,9.313212 6.226425,9.311909 6.181665,9.304911 6.176131,9.309468 6.180526,9.349507 6.182154,9.363993 6.182154,9.381734 6.180363,9.388896 6.177434,9.401754 6.176457,9.401917 6.12714,9.39915 6.096378,9.397522 6.075545,9.398661 6.073429,9.402079 6.071639,9.405172 6.065616,9.410217 6.060408,9.41331 6.055037,9.416565 6.045108,9.430074 6.038435,9.443584 6.02867,9.462952 6.025414,9.466207 6.022647,9.45872 6.019555,9.449768 6.018578,9.449768 6.009626,9.458395 6.004418,9.46344 5.995141,9.484274 5.988956,9.504782 5.982771,9.525127 5.973982,9.548076 5.969424,9.555726 c -0.00439,0.00765 -0.0083,0.026693 -0.00846,0.041993 -3.26e-4,0.015462 -0.00342,0.033528 -0.007,0.040202 -0.00342,0.00684 -0.00635,0.021321 -0.00635,0.032389 V 9.69033 L 5.92027,9.673565 C 5.900576,9.661521 5.891624,9.652081 5.888206,9.639874 5.885602,9.630596 5.880557,9.622947 5.876976,9.622947 c -0.00358,0 -0.00765,-0.00326 -0.00895,-0.00732 C 5.866559,9.611716 5.850608,9.605531 5.832705,9.60195 5.794293,9.594301 5.77818,9.600974 5.763043,9.63141 5.753114,9.651104 5.737164,9.662823 5.720888,9.662335 5.693544,9.661684 5.655295,9.656964 5.650086,9.653383 5.641948,9.648012 5.647482,9.607973 5.657899,9.59544 5.662456,9.590069 5.6662,9.581768 5.6662,9.576722 5.6662,9.57184 5.674663,9.560446 5.684917,9.551332 5.703309,9.534893 5.703472,9.534567 5.695497,9.517803 5.690939,9.508525 5.684429,9.499899 5.681011,9.49876 5.676291,9.496969 5.676291,9.492086 5.680848,9.477926 5.684266,9.467835 5.685568,9.453837 5.684103,9.447164 5.682476,9.440328 5.68036,9.421122 5.679383,9.404358 5.674663,9.328674 5.670594,9.309143 5.658062,9.302958 5.639344,9.293843 5.611512,9.301981 5.60435,9.318745 5.598491,9.332417 5.597514,9.332743 5.585958,9.324605 5.579122,9.319722 5.561381,9.314188 5.54657,9.312072 5.521993,9.308491 5.519714,9.307027 5.52297,9.296284 5.527039,9.282775 5.527039,9.275614 5.522481,9.246805 5.518901,9.224669 5.51532,9.222228 5.499044,9.231668 5.49058,9.236551 5.488139,9.235086 5.483907,9.223204 5.48114,9.215392 5.475281,9.209044 5.471049,9.209044 c -0.00439,0 -0.01237,-0.00944 -0.017741,-0.020996 C 5.441426,9.16282 5.416035,9.077207 5.416035,9.062559 5.416035,9.041237 5.401061,9.013893 5.384134,9.004453 5.374694,8.999245 5.36265,8.988991 5.357278,8.981829 5.350931,8.973203 5.342142,8.968483 5.33205,8.968483 5.309752,8.968483 5.279967,8.983457 5.276874,8.996152 5.275409,9.002337 5.266295,9.012266 5.256529,9.018451 5.244485,9.0261 5.238788,9.03375 5.238788,9.042865 c 0,0.026204 -0.010091,0.032552 -0.054199,0.034017 L 5.143735,9.078184 5.123553,9.103087 C 5.112648,9.116758 5.103859,9.131733 5.104184,9.13629 c 4.89e-4,0.00472 -0.00195,0.015462 -0.00521,0.024251 -0.00326,0.00863 -0.00602,0.025228 -0.00602,0.036784 0,0.016602 -0.00277,0.022624 -0.012858,0.028321 C 5.067563,9.23297 5.060727,9.251688 5.063168,9.273335 5.063982,9.282124 5.059913,9.285379 5.043474,9.289286 5.031918,9.29189 5.018409,9.296447 5.013363,9.299214 5.003923,9.304422 4.984392,9.297098 4.977556,9.285868 4.975603,9.282612 4.964372,9.281961 4.950212,9.28424 4.933122,9.287007 4.924496,9.291564 4.920264,9.300353 4.9118,9.317281 4.908708,9.318745 4.884782,9.316304 4.861833,9.314025 4.857438,9.303609 4.869808,9.282124 4.875016,9.273335 4.87404,9.266336 4.864762,9.244363 4.852718,9.216043 4.848812,9.177306 4.855485,9.152078 4.858577,9.140033 4.856787,9.134174 4.84637,9.122943 4.834163,9.109922 4.829931,9.108946 4.785986,9.10976 4.759944,9.110085 4.736994,9.10862 4.735041,9.106505 4.732925,9.104226 4.735367,9.094948 4.740412,9.085834 4.749202,9.06972 4.749202,9.068744 4.736506,9.045469 4.728205,9.030007 4.721532,9.005592 4.717789,8.975807 4.710302,8.915585 4.699234,8.854224 4.694676,8.846249 4.692561,8.842668 4.684097,8.835995 4.675633,8.831275 4.662775,8.824276 4.65659,8.823951 4.6395,8.829322 4.616714,8.836646 4.603042,8.830136 4.603042,8.812069 4.603042,8.795142 4.58644,8.785213 4.55698,8.784725 4.541843,8.7844 4.527195,8.782772 4.524428,8.780982 4.521824,8.779191 4.519545,8.767635 4.519545,8.755265 4.519545,8.729061 4.499851,8.662654 4.478529,8.617244 L 4.46323,8.585342 4.479343,8.561254 C 4.497735,8.533747 4.49448,8.517959 4.470554,8.518447 4.460625,8.51861 4.457533,8.516169 4.459161,8.509984 4.473646,8.458551 4.471205,8.425836 4.452813,8.425836 c -0.00521,0 -0.011882,-0.0026 -0.014974,-0.0057 C 4.429375,8.410862 4.415866,8.419814 4.414076,8.43609 4.411634,8.459853 4.386569,8.459202 4.344902,8.434137 4.326347,8.422906 4.309746,8.411513 4.308118,8.408583 4.306328,8.405816 4.295097,8.403538 4.28289,8.403538 c -0.012207,0 -0.026693,-0.00374 -0.032227,-0.0083 -0.02181,-0.017741 -0.055013,-0.0044 -0.039225,0.01595 0.00439,0.0057 0.00407,0.00911 -0.0013,0.013998 C 4.198579,8.435439 4.176932,8.413303 4.172863,8.386936 4.168469,8.359429 4.159517,8.351291 4.13201,8.349989 4.110851,8.34885 4.1102,8.348199 4.107433,8.326226 4.10369,8.298068 4.094575,8.286024 4.076997,8.286187 4.062023,8.286349 4.045095,8.297743 4.045095,8.307671 c 0,0.00944 -0.010254,0.00765 -0.013834,-0.00244 C 4.02947,8.300347 4.02475,8.297905 4.020356,8.299696 4.008311,8.304741 3.99822,8.292209 3.99822,8.272026 3.99822,8.262096 3.99464,8.250705 3.99041,8.246798 3.98601,8.243058 3.9826,8.235242 3.9826,8.229383 c 0,-0.0057 -0.00293,-0.010417 -0.00667,-0.010417 -0.00358,0 -0.015463,-0.00798 -0.026368,-0.017415 C 3.930511,8.184624 3.929209,8.184298 3.910817,8.191785 3.895029,8.198295 3.890798,8.203504 3.887054,8.220919 c -0.00618,0.027507 0.00423,0.041993 0.022461,0.031576 0.013509,-0.00781 0.014323,-0.00716 0.015788,0.011068 0.00179,0.022949 6.51e-4,0.023763 -0.015137,0.011719 -0.00846,-0.00651 -0.019043,-0.011719 -0.0236,-0.011719 -0.00456,0 -0.02474,0.014974 -0.044922,0.03304 C 3.800953,8.333225 3.77898,8.340386 3.748218,8.32704 3.722339,8.315809 3.675952,8.260308 3.671883,8.235893 3.670093,8.224988 3.660816,8.198784 3.65105,8.177625 3.641284,8.156466 3.633309,8.135958 3.633309,8.132214 3.633309,8.12017 3.58448,8.097709 3.568367,8.102266 3.556648,8.105684 3.553067,8.103894 3.546069,8.091361 3.541674,8.08306 3.528328,8.068575 3.516609,8.059297 3.491055,8.038952 3.489102,8.026582 3.510912,8.024303 3.519539,8.023327 3.534838,8.018444 3.544767,8.013236 3.554858,8.00819 3.567228,8.004772 3.572436,8.005586 c 0.0153,0.0026 0.034831,-0.014649 0.034831,-0.030437 0,-0.00863 0.00228,-0.012695 0.00553,-0.010579 0.00309,0.00212 0.013672,0.00212 0.0236,1.63e-4 L 3.654305,7.961152 V 7.92567 C 3.654305,7.894094 3.65284,7.889211 3.641284,7.881073 3.625334,7.869843 3.624683,7.853892 3.639006,7.825083 3.651701,7.799855 3.649097,7.777069 3.633472,7.777069 c -0.00553,0 -0.01237,-0.00439 -0.015137,-0.00977 C 3.611662,7.753957 3.578458,7.735727 3.56853,7.739796 3.562508,7.742238 3.561206,7.748748 3.563321,7.76714 3.5656,7.787811 3.563973,7.793345 3.551277,7.807831 3.543302,7.817108 3.527839,7.828013 3.516934,7.832082 3.499519,7.838755 3.496426,7.838593 3.490893,7.830617 3.485684,7.822968 3.482103,7.822479 3.467455,7.828013 3.457527,7.831594 3.438809,7.833059 3.42416,7.831106 3.41,7.829315 3.385911,7.830617 3.370612,7.833873 3.348476,7.838593 3.341315,7.842987 3.335944,7.854706 3.329922,7.868052 3.329108,7.868378 3.327317,7.858124 3.323737,7.839569 3.309902,7.810109 3.303229,7.807342 3.299811,7.80604 3.285488,7.808482 3.271327,7.813202 3.257167,7.817759 3.24496,7.820689 3.244146,7.819875 3.243495,7.819061 3.245286,7.80897 3.248215,7.797414 3.252122,7.781952 3.251959,7.774139 3.247401,7.76828 3.242521,7.76193 3.243011,7.7603 3.249681,7.7603 3.261888,7.7603 3.260098,7.7507 3.245941,7.740769 3.235032,7.733123 3.231776,7.733123 3.214849,7.74061 3.204432,7.74533 3.190598,7.749074 3.184087,7.748911 3.167974,7.748586 3.085128,7.674529 3.097986,7.671925 3.108729,7.669646 3.108729,7.669809 3.100591,7.650766 3.094568,7.63628 3.093266,7.635955 3.061528,7.63921 3.041996,7.641163 3.028813,7.640349 3.028813,7.637094 c 0,-0.00293 -0.00505,-0.00537 -0.011231,-0.00537 -0.00618,0 -0.00993,-0.00163 -0.00798,-0.00358 C 3.017094,7.620004 3.001794,7.602914 2.988122,7.604216 2.969568,7.606169 2.939457,7.598519 2.929854,7.58973 2.925459,7.585824 2.911462,7.580778 2.898604,7.578663 2.885583,7.576547 2.861494,7.56613 2.84473,7.555713 2.812666,7.535531 2.789065,7.531462 2.779137,7.54432 2.775881,7.548552 2.767581,7.564014 2.760582,7.578663 2.746259,7.609262 2.748049,7.614958 2.779137,7.639047 2.795413,7.65158 2.799482,7.658253 2.799482,7.672576 c 0,0.00977 0.00358,0.025065 0.00781,0.033854 0.00439,0.00879 0.00798,0.022624 0.00798,0.030762 3.25e-4,0.019694 0.014485,0.036784 0.037598,0.044922 0.04069,0.014486 0.056641,0.043458 0.039551,0.072755 -0.00488,0.0083 -0.00391,0.014811 0.00439,0.03304 0.010091,0.021973 0.00879,0.039877 -0.0026,0.03239 C 2.891279,7.918346 2.886234,7.907929 2.882816,7.897187 2.879072,7.884817 2.873538,7.877818 2.867679,7.877818 c -0.011556,0 -0.028646,0.019532 -0.024089,0.027507 0.00228,0.00391 -0.0057,0.00602 -0.022949,0.00602 -0.027181,0 -0.047201,0.012858 -0.047201,0.030436 0,0.013672 -0.0096,0.0153 -0.020671,0.00326 -0.00879,-0.00944 -0.01237,-0.010254 -0.02067,-0.00456 -0.00553,0.00358 -0.013021,0.012533 -0.016602,0.019532 -0.00342,0.007 -0.00928,0.012858 -0.012858,0.012858 -0.00374,0 -0.011394,0.013835 -0.017416,0.030925 C 2.670575,8.045951 2.65967,8.06239 2.646486,8.06239 c -0.0083,0 -0.015137,0.0083 -0.026856,0.032064 C 2.602866,8.129285 2.594728,8.132214 2.564943,8.11545 2.557781,8.111381 2.54769,8.106498 2.542644,8.10487 2.537599,8.10308 2.529298,8.093965 2.524415,8.084688 2.519532,8.075248 2.510092,8.066133 2.503419,8.064343 2.495281,8.062064 2.492351,8.058158 2.494467,8.052298 2.496257,8.047416 2.492188,8.03765 2.484538,8.029186 2.473145,8.016328 2.471192,8.008353 2.469076,7.964407 L 2.466635,7.914114 2.445476,7.89442 C 2.433757,7.883515 2.424317,7.871796 2.424317,7.868378 2.424317,7.864797 2.418783,7.85731 2.41211,7.851614 2.405436,7.84608 2.386556,7.819387 2.370117,7.792531 2.340495,7.743865 2.340006,7.74354 2.318359,7.74354 2.299316,7.743377 2.295084,7.741098 2.28483,7.724009 2.27832,7.713266 2.273111,7.695851 2.273111,7.684946 c 0,-0.028321 -0.014811,-0.042155 -0.045247,-0.042155 -0.015137,0 -0.027833,0.00358 -0.033692,0.00928 -0.00879,0.00846 -0.0096,0.00814 -0.01416,-0.00456 C 2.177408,7.640186 2.171711,7.630909 2.167316,7.627003 2.163084,7.623259 2.158039,7.613819 2.156249,7.606332 2.153807,7.595752 2.149575,7.592497 2.138508,7.592497 2.126951,7.592497 2.122882,7.588917 2.117837,7.573942 2.109373,7.54904 2.109373,7.549365 2.127114,7.552132 2.13867,7.554086 2.143716,7.55197 2.14632,7.544483 2.14844,7.538623 2.14746,7.533578 2.14372,7.532276 2.13542,7.529186 2.13607,7.519743 2.144696,7.519743 c 0.00374,0 0.012696,-0.00521 0.019532,-0.011719 0.00684,-0.00635 0.0236,-0.017741 0.037272,-0.025228 0.013672,-0.00749 0.02474,-0.015951 0.02474,-0.01888 0,-0.00293 0.007,-0.00391 0.015625,-0.00195 0.013672,0.00293 0.018392,0 0.039063,-0.023926 0.012858,-0.014974 0.023437,-0.031739 0.023437,-0.037273 0,-0.00553 0.00374,-0.016113 0.0083,-0.023437 C 2.317385,7.36935 2.319505,7.358938 2.317545,7.352427 2.314615,7.342658 2.317057,7.340543 2.335449,7.33745 2.351074,7.334683 2.356608,7.331265 2.356608,7.323778 2.356608,7.304409 2.345866,7.283902 2.321289,7.255744 2.267903,7.194383 2.262695,7.187872 2.262695,7.181199 2.262695,7.170294 2.23356,7.160203 2.213378,7.164272 2.202473,7.166388 2.190428,7.165248 2.18343,7.161179 2.177082,7.157436 2.164224,7.152716 2.154946,7.150437 2.133787,7.145229 2.123859,7.155808 2.118976,7.189012 2.113931,7.223191 2.099445,7.227912 2.078611,7.202684 2.061684,7.181687 2.034666,7.167364 2.012693,7.167364 c -0.010905,0 -0.01888,0.00635 -0.033366,0.026205 -0.010417,0.014323 -0.018881,0.029297 -0.018881,0.033366 0,0.013184 -0.022298,0.029948 -0.039876,0.029948 -0.016276,0 -0.016927,-6.51e-4 -0.012044,-0.014323 C 1.922035,7.204311 1.909014,7.130906 1.886064,7.117234 1.873044,7.109421 1.8693,7.109747 1.834144,7.123581 1.81331,7.13172 1.792477,7.14002 1.787919,7.141974 1.781246,7.144903 1.778154,7.140183 1.773271,7.119512 1.769853,7.105027 1.761389,7.08517 1.75439,7.075241 1.747392,7.065476 1.741532,7.050664 1.741532,7.042526 1.741532,7.013066 1.708329,6.994023 1.69368,7.01502 1.689937,7.020391 1.679846,7.025436 1.671219,7.026087 1.662593,7.026901 1.644526,7.029017 1.630854,7.030807 1.607905,7.034063 1.605952,7.033249 1.601232,7.020065 1.597651,7.009974 1.589676,7.003789 1.573725,6.998906 1.561355,6.995 1.544265,6.986211 1.535802,6.979375 1.523595,6.969935 1.510737,6.966517 1.479486,6.964563 1.457025,6.963261 1.436029,6.959192 1.432774,6.955612 1.429519,6.952194 1.420078,6.949264 1.412103,6.949264 c -0.014486,0 -0.045736,-0.027018 -0.045736,-0.039388 0,-0.00293 -0.00553,-0.00537 -0.012207,-0.00537 -0.013184,0 -0.02946,0.015462 -0.029623,0.028483 -3.25e-4,0.00976 -0.017903,0.03304 -0.025065,0.03304 -0.00635,0 -0.013509,-0.041829 -0.00863,-0.050293 0.00195,-0.00342 6.51e-4,-0.01888 -0.00293,-0.034343 C 1.282382,6.856653 1.278639,6.850956 1.25748,6.837121 1.244296,6.828332 1.231763,6.819055 1.229647,6.816613 1.212883,6.797407 1.200839,6.774458 1.195305,6.751346 1.18912,6.725304 1.189445,6.722863 1.201978,6.703494 1.217115,6.680056 1.218091,6.673546 1.208,6.664594 1.204094,6.661013 1.199374,6.650597 1.197746,6.641482 1.195305,6.628136 1.191887,6.62488 1.181145,6.62488 1.170891,6.62488 1.166496,6.62081 1.162264,6.608116 1.159334,6.598836 1.155424,6.591351 1.153634,6.591351 c -0.00879,0 -0.047852,0.018881 -0.047852,0.023113 0,0.0026 -0.00244,0.00472 -0.00521,0.00472 -0.00293,0 -0.00521,-0.013835 -0.00521,-0.030762 0,-0.033366 -0.00212,-0.035157 -0.030111,-0.02474 C 1.054842,6.567588 1.047355,6.575401 1.043937,6.58598 1.037263,6.606488 1.020662,6.603396 1.025545,6.582562 1.028149,6.571495 1.026196,6.56889 1.013663,6.565961 1.005525,6.56417 0.992667,6.558962 0.985017,6.554567 0.971996,6.546918 0.970694,6.547243 0.967601,6.55766 0.962556,6.57475 0.955394,6.571169 0.951651,6.549359 L 0.948233,6.529828 0.933259,6.541384 C 0.924958,6.547731 0.918122,6.55652 0.918122,6.560915 c 0,0.0044 -0.00472,0.00798 -0.010254,0.00798 -0.006836,0 -0.013997,0.00781 -0.021322,0.02295 C 0.876292,6.61365 0.87613,6.615277 0.884756,6.625369 0.890127,6.631879 0.899242,6.635623 0.907217,6.634646 0.920075,6.633344 0.920726,6.634483 0.921703,6.663455 0.922517,6.690473 0.920889,6.695519 0.90738,6.709028 0.890778,6.725792 0.888174,6.737511 0.898916,6.747114 0.902822,6.750532 0.906078,6.765669 0.906566,6.78162 0.907054,6.807499 0.905915,6.810428 0.893057,6.8158 0.882152,6.820194 0.87206,6.819055 0.847809,6.810591 0.808258,6.796594 0.779612,6.794966 0.775543,6.806522 0.771962,6.816451 0.761057,6.81759 0.753082,6.808964 0.74706,6.802616 0.766266,6.76811 0.800608,6.7227 0.809886,6.710493 0.820628,6.69031 0.824209,6.677941 0.827952,6.665733 0.832509,6.65434 0.834137,6.652875 0.841624,6.646202 0.85611,6.605023 0.85904,6.582237 0.86083,6.568728 0.863922,6.55766 0.866201,6.55766 c 0.002116,0 0.005534,-0.00684 0.007487,-0.0153 C 0.875641,6.533897 0.87971,6.525433 0.88264,6.52348 0.886221,6.521201 0.885732,6.515667 0.881501,6.507041 0.875804,6.49581 0.876455,6.492881 0.886709,6.484092 0.895335,6.476442 0.899242,6.465049 0.902334,6.438356 0.904613,6.418824 0.90917,6.397503 0.912425,6.390992 0.915681,6.384482 0.91861,6.365764 0.918773,6.349488 0.919099,6.333374 0.92154,6.315633 0.924144,6.310262 0.926748,6.304891 0.929678,6.289103 0.930655,6.274943 0.931794,6.260946 0.934073,6.247925 0.9357,6.245972 0.937491,6.244181 0.938955,6.237182 0.938955,6.230509 c 0,-0.00667 0.005697,-0.017904 0.012859,-0.024902 C 0.962719,6.194539 0.964346,6.188517 0.962881,6.164103 0.960603,6.124063 0.955232,6.104695 0.940909,6.084024 0.934073,6.074258 0.928539,6.064493 0.928539,6.062214 0.928539,6.060098 0.924958,6.055541 0.920726,6.052123 0.908031,6.042031 0.892568,5.990436 0.898591,5.978717 0.902497,5.971556 0.901358,5.964394 0.894847,5.952513 0.888662,5.941119 0.887523,5.934283 0.891266,5.929401 0.894684,5.925006 0.894847,5.919472 0.891917,5.914264 0.88557,5.903684 0.885407,5.871295 0.891592,5.867226 0.901846,5.860552 0.875967,5.799517 0.858389,5.7891 0.852855,5.785845 0.845205,5.780148 0.841624,5.776567 0.838043,5.772987 0.818675,5.766965 0.798818,5.763221 0.769358,5.757524 0.761708,5.753781 0.757151,5.743039 0.754058,5.735877 0.747548,5.729855 0.742828,5.729855 0.737945,5.729855 0.729481,5.72546 0.723948,5.720089 0.718414,5.714718 0.701975,5.707882 0.687326,5.70479 0.664377,5.699907 0.660308,5.696977 0.656239,5.682329 0.653635,5.673051 0.649077,5.66003 0.645985,5.653194 0.639637,5.639197 0.647775,5.62227 0.674794,5.593949 L 0.690744,5.577185 0.684397,5.523473 C 0.677886,5.467972 0.665191,5.422236 0.656239,5.422236 0.653309,5.422236 0.641265,5.412958 0.629546,5.401565 0.595366,5.368524 0.5856,5.346389 0.579578,5.28926 0.574695,5.243524 0.570301,5.235223 0.545561,5.226596 0.534656,5.22269 0.526192,5.214715 0.522286,5.204786 0.517078,5.191277 0.517892,5.186232 0.528308,5.168816 0.534819,5.157748 0.542794,5.148471 0.545886,5.148471 0.552885,5.148145 0.579415,5.118686 0.579415,5.111036 0.579415,5.107943 0.58853,5.097201 0.599761,5.08711 0.614246,5.074089 0.621896,5.061394 0.626453,5.042839 0.630034,5.028516 0.636219,5.0111 0.640125,5.004102 L 0.64745,4.991569 h 4.411487 c 2.65057,0 4.411487,0.00195 4.411487,0.00505 0,0.00277 -0.00749,0.011881 -0.016602,0.020182 C 9.44015,5.029171 9.438197,5.033403 9.44308,5.041703 9.45187,5.05684 9.457077,5.092159 9.4504,5.092159 c -0.010905,0 -0.017904,0.022787 -0.011719,0.037598 0.00488,0.011231 0.00407,0.016439 -0.00423,0.028972 -0.011067,0.016602 -0.00895,0.025065 0.00765,0.030599 0.012533,0.00423 0.024903,0.036784 0.019694,0.051758 -0.00619,0.017904 -0.049642,0.058594 -0.058919,0.055339 -0.00977,-0.00325 -0.0389,0.026856 -0.044109,0.045411 -0.00374,0.013509 0.00651,0.04248 0.013347,0.037923 0.0026,-0.00163 0.00472,0.00293 0.00504,0.010091 1.63e-4,0.007 0.00114,0.025391 0.00195,0.040853 9.77e-4,0.0153 1.63e-4,0.029135 -0.00179,0.030762 -0.00684,0.0057 -0.015299,0.039063 -0.010579,0.042156 0.0026,0.00179 0.00472,0.020182 0.00472,0.040853 0,0.027181 0.00293,0.043782 0.010742,0.059733 0.00635,0.013184 0.011393,0.035482 0.012207,0.054688 0.00163,0.036133 0.00651,0.044434 0.026367,0.044434 0.015463,0 0.028809,0.016764 0.025228,0.031576 C 9.442266,5.750526 9.46961,5.781776 9.484421,5.778683 9.50086,5.775265 9.500535,5.791053 9.483607,5.80798 L 9.470749,5.821001 9.481491,5.836952 c 0.0057,0.00879 0.013835,0.015951 0.018067,0.015951 0.00407,0 0.00732,0.00407 0.00732,0.00895 0,0.00488 0.00407,0.016113 0.00895,0.024902 0.00814,0.015137 0.00814,0.016764 0,0.02653 -0.00488,0.0057 -0.00895,0.018718 -0.00895,0.028809 0,0.011393 -0.00488,0.024577 -0.013021,0.034994 C 9.4867,5.986204 9.48084,5.999551 9.48084,6.006875 c 0,0.00732 -0.00374,0.015625 -0.00846,0.018392 -0.00635,0.00391 -0.00765,0.010417 -0.00553,0.026856 0.00667,0.050944 0.011556,0.066081 0.021973,0.069173 0.019694,0.00586 0.059245,0.036133 0.062012,0.047364 0.00163,0.00635 0.00293,0.018066 0.00293,0.026204 0,0.00814 0.00358,0.017904 0.00798,0.021648 0.00423,0.00391 0.00781,0.011556 0.00781,0.01709 0,0.00863 0.024415,0.033203 0.033041,0.033203 0.00521,0 0.037923,0.036296 0.046875,0.051758 0.00488,0.00846 0.013184,0.015463 0.018392,0.015463 0.00912,0 0.026693,0.016113 0.026693,0.024577 0,0.00228 -0.00358,0.00798 -0.00781,0.012532 -0.00423,0.00472 -0.00781,0.013835 -0.00765,0.020671 1.63e-4,0.021484 0.023275,0.062012 0.043132,0.076009 0.017252,0.012045 0.019206,0.015951 0.019206,0.037436 0,0.013021 0.00195,0.025065 0.00407,0.02653 0.00228,0.00147 0.00358,0.015137 0.00309,0.030436 -9.77e-4,0.024414 3.26e-4,0.028483 0.011556,0.033855 0.016927,0.0083 0.033366,0.038574 0.033366,0.061523 0,0.01058 0.00505,0.025879 0.011719,0.035482 0.026367,0.037924 0.078614,0.093263 0.091146,0.096681 0.00765,0.00195 0.021973,0.010905 0.032064,0.020019 0.010254,0.00911 0.021485,0.016439 0.024903,0.016439 0.013672,0 0.011556,0.010905 -0.00472,0.023275 C 9.933328,6.861373 9.926167,6.862512 9.87213,6.862512 H 9.812711 l -0.029948,0.088217 0.00977,0.020182 c 0.00765,0.015951 0.013672,0.020996 0.027506,0.023112 0.0153,0.00244 0.017904,0.00521 0.019043,0.019532 0.00505,0.062175 0.00586,0.064128 0.027019,0.067708 0.019531,0.00342 0.019694,0.00358 0.012858,0.018555 -0.00619,0.013347 -0.0057,0.017904 0.0044,0.039877 0.00618,0.013672 0.013997,0.027507 0.017415,0.030599 0.00342,0.00293 0.00749,0.016602 0.00895,0.030111 0.00163,0.013509 0.00586,0.02653 0.0096,0.028971 0.00553,0.00374 0.00553,0.010417 0,0.036947 C 9.915576,7.284227 9.909229,7.320197 9.904997,7.346402 9.886768,7.462125 9.879769,7.496142 9.869515,7.519743 9.859749,7.542041 9.853727,7.547575 9.81678,7.567269 9.779508,7.587289 9.771532,7.589568 9.741747,7.588265 9.723355,7.587452 9.694872,7.584522 9.678433,7.581755 9.607143,7.569385 9.533087,7.624561 9.520391,7.699269 9.517624,7.716196 9.511602,7.72352 9.483445,7.744028 9.452032,7.767303 9.428594,7.798716 9.428594,7.817596 c 0,0.00456 -0.00993,0.015463 -0.022136,0.023926 C 9.353073,7.879283 9.278365,7.951712 9.254114,7.989473 9.23035,8.026582 9.152388,8.111869 9.131392,8.123913 9.12602,8.127006 9.116906,8.140678 9.111372,8.154187 9.104373,8.17144 9.09477,8.182833 9.080122,8.191948 9.060102,8.204318 9.04822,8.22157 9.04822,8.238172 9.04822,8.242404 9.038129,8.258029 9.025759,8.27284 9.013552,8.287814 8.984581,8.327691 8.961469,8.361545 8.938356,8.3954 8.9032,8.446995 8.88318,8.476292 8.863161,8.505426 8.829957,8.548233 8.809449,8.571345 8.788779,8.594457 8.768922,8.617081 8.765015,8.621638 8.761109,8.626358 8.753134,8.634171 8.747274,8.639216 8.740113,8.645564 8.735718,8.658422 8.732951,8.681209 8.728882,8.716528 8.731975,8.712133 8.660685,8.789445 8.633992,8.818579 8.624552,8.833879 8.613484,8.865292 8.604533,8.891334 8.585327,8.925839 8.556844,8.967018 8.524128,9.014382 8.512247,9.03668 8.507364,9.059304 8.498412,9.10032 8.4989,9.104226 8.516316,9.146869 c 0.011881,0.029297 0.015299,0.045248 0.014811,0.070964 -6.51e-4,0.025879 0.00228,0.039389 0.013184,0.062338 0.00765,0.015951 0.013997,0.038086 0.013997,0.048991 0,0.032552 0.0153,0.132651 0.024089,0.157553 0.00749,0.021322 0.00749,0.026856 -4.88e-4,0.064291 -0.00472,0.022461 -0.010742,0.04362 -0.013347,0.046875 -0.0026,0.00342 -0.00293,0.01351 -4.88e-4,0.022624 0.00423,0.016602 0.00358,0.019532 -0.011719,0.050782 -0.011393,0.0236 -0.010742,0.042481 0.00163,0.050944 0.00863,0.0057 0.01123,0.00521 0.015462,-0.00293 0.00456,-0.0083 0.00537,-0.00765 0.00553,0.00472 1.63e-4,0.017252 0.017416,0.027832 0.038249,0.023437 0.011231,-0.00228 0.013997,-6.51e-4 0.013997,0.00781 0,0.013021 0.043295,0.063477 0.054526,0.063477 0.00439,0 0.00798,0.00325 0.00798,0.00749 0,0.00407 0.00602,0.010416 0.013346,0.013997 0.012533,0.00602 0.012859,0.00716 0.00472,0.015788 -0.007,0.00765 -0.00798,0.015788 -0.00505,0.045085 0.00195,0.019531 0.0057,0.04362 0.0083,0.053223 0.00244,0.0096 0.00407,0.017904 0.00342,0.018555 -6.5e-4,8.15e-4 -0.012206,-0.00553 -0.025553,-0.013671 z m 0,0"
       transform="matrix(23.999844,0,0,23.999844,3.71998e-4,0)"
       id="path2"
       inkscape:connector-curvature="0" />
    <path
       style="fill:#ffffff;fill-opacity:1;fill-rule:evenodd;stroke:#dc113a;stroke-width:0.03999084;stroke-linecap:round;stroke-linejoin:round;stroke-miterlimit:4;stroke-opacity:1"
       d="M 0.648263,4.980338 C 0.648263,4.976758 0.644357,4.969271 0.6398,4.963737 0.631987,4.954459 0.631987,4.952181 0.640288,4.933463 0.645171,4.922233 0.647938,4.908235 0.646636,4.902376 0.645008,4.895865 0.649077,4.885123 0.656727,4.875194 0.663889,4.86608 0.670887,4.849153 0.672189,4.837597 0.673654,4.825878 0.677398,4.807323 0.680327,4.796255 0.68521,4.778677 0.684234,4.773469 0.673491,4.75589 0.666493,4.744171 0.652495,4.731639 0.640451,4.725942 0.628895,4.720571 0.618641,4.715525 0.617339,4.714549 0.616037,4.713572 0.613432,4.699575 0.611642,4.683461 0.60855,4.657908 0.609689,4.651886 0.620268,4.636749 0.634754,4.616566 0.635568,4.606475 0.624663,4.583851 0.617176,4.568552 0.617502,4.566273 0.627918,4.551136 0.641753,4.530954 0.642079,4.497913 0.628732,4.471872 0.620268,4.455758 0.614735,4.452177 0.589181,4.446643 0.572742,4.443225 0.555164,4.436064 0.549793,4.431018 0.544584,4.425973 0.536772,4.423206 0.53254,4.424996 0.521472,4.429391 0.507963,4.405302 0.511218,4.387073 0.512846,4.377795 0.510079,4.366402 0.503894,4.356636 0.491524,4.337268 0.481433,4.301135 0.481433,4.275744 0.481433,4.265327 0.477689,4.250841 0.472969,4.24368 0.465971,4.232938 0.465482,4.227078 0.470202,4.210314 0.473458,4.199083 0.476713,4.184923 0.477527,4.178738 0.47834,4.172228 0.483712,4.166857 0.490059,4.16588 0.506335,4.163276 0.531726,4.125841 0.546375,4.082709 L 0.559233,4.044623 0.54784,4.031602 C 0.532377,4.014023 0.53254,3.980657 0.548165,3.958196 0.554513,3.948756 0.562163,3.934759 0.56493,3.926946 0.569324,3.914576 0.568348,3.911972 0.556954,3.907415 0.549142,3.904159 0.540841,3.89358 0.535958,3.880396 0.527332,3.857447 0.514311,3.845077 0.476225,3.82343 0.433093,3.799016 0.397122,3.770695 0.389798,3.755558 0.385892,3.747257 0.377917,3.738794 0.372057,3.736841 0.366361,3.734888 0.36164,3.730981 0.36164,3.728377 0.36164,3.72089 0.341784,3.690779 0.309394,3.649275 0.287421,3.620792 0.272773,3.608096 0.245917,3.593936 0.222968,3.581729 0.199205,3.562523 0.17593,3.537458 0.141424,3.500186 0.140122,3.499372 0.10285,3.492861 0.0548351,3.48456 0.0515799,3.477236 0.0777845,3.436383 0.0938979,3.411318 0.0963393,3.403668 0.0935723,3.387066 0.0771334,3.288433 0.0763196,3.278179 0.0842949,3.272482 0.0886895,3.26939 0.0966648,3.261577 0.102036,3.255229 0.107407,3.248719 0.12645,3.236186 0.144191,3.227235 0.161932,3.218283 0.186997,3.200867 0.199693,3.188497 0.289537,3.101745 0.288235,3.104024 0.309069,3.00832 L 0.320299,2.956888 0.309231,2.933613 C 0.299466,2.913105 0.298977,2.907571 0.304186,2.883808 0.308417,2.864927 0.313789,2.855487 0.322415,2.851256 0.329088,2.847838 0.336412,2.839374 0.338366,2.832212 c 0.002116,-0.007 0.00944,-0.02067 0.016113,-0.03011 0.006836,-0.0096 0.01237,-0.019369 0.01237,-0.021973 0,-0.0026 0.003743,-0.00911 0.008463,-0.014649 C 0.382474,2.756854 0.382799,2.752785 0.377266,2.738462 0.373359,2.728371 0.366849,2.721535 0.361315,2.721535 c -0.013184,0 -0.0153,-0.00553 -0.017578,-0.045899 C 0.341295,2.633806 0.335924,2.604997 0.329576,2.600766 0.327135,2.599138 0.325182,2.58807 0.325182,2.576189 0.325182,2.564307 0.320136,2.542497 0.314114,2.527523 0.308092,2.512712 0.301907,2.484228 0.300442,2.464209 0.298977,2.444189 0.295722,2.425146 0.293443,2.421891 0.291002,2.418798 0.286933,2.40122 0.284329,2.382991 0.281562,2.364761 0.276842,2.348974 0.273587,2.347834 0.261379,2.34344 0.252428,2.328954 0.249498,2.308772 0.247707,2.297378 0.244127,2.283543 0.24136,2.27801 0.238267,2.271987 0.238105,2.264338 0.241034,2.258478 0.243638,2.253107 0.24608,2.226902 0.246405,2.20021 0.247219,2.153497 0.246568,2.150893 0.231269,2.132175 0.217271,2.115085 0.215155,2.107924 0.213365,2.070814 0.211249,2.030775 0.211737,2.028822 0.223293,2.025729 0.236802,2.021986 0.245754,1.996432 0.236802,1.986829 0.23371,1.983574 0.231269,1.97511 0.231269,1.967786 c 0,-0.01123 0.001464,-0.012207 0.010416,-0.007 0.005697,0.00326 0.010417,0.010417 0.010417,0.015788 0,0.010254 0.052572,0.068523 0.070476,0.077963 0.005696,0.00309 0.024414,0.00732 0.041504,0.0096 0.053386,0.007 0.086589,0.031087 0.099773,0.072266 0.004394,0.01416 0.010254,0.027181 0.012858,0.028809 0.002604,0.00179 0.00472,0.00944 0.00472,0.017253 0,0.00781 0.002279,0.012369 0.005208,0.010416 0.00293,-0.00195 0.005209,0.00179 0.005209,0.00814 0,0.00911 0.003418,0.011394 0.016113,0.011394 H 0.523914 L 0.522449,2.180678 C 0.52131,2.151544 0.522286,2.148289 0.533842,2.142918 0.543608,2.13836 0.547026,2.132013 0.548165,2.115899 0.549142,2.100925 0.547351,2.093926 0.541655,2.091485 0.53726,2.089695 0.533517,2.0853 0.533517,2.081556 c 0,-0.00439 -0.006511,-0.00586 -0.018881,-0.00423 C 0.50308,2.07879 0.496895,2.077487 0.498848,2.074232 0.500476,2.07114 0.496407,2.065931 0.489571,2.062676 0.473458,2.054701 0.468249,2.022311 0.476225,1.97918 0.485502,1.929049 0.486316,1.927259 0.499988,1.927259 c 0.006998,0 0.012695,-0.0026 0.012695,-0.0057 0,-0.00309 0.00472,-0.00553 0.010254,-0.00553 0.005697,0 0.012533,-0.00472 0.015462,-0.010417 C 0.54312,1.896008 0.541817,1.846692 0.535958,1.817395 0.534656,1.810721 0.537097,1.802258 0.541492,1.798514 c 0.004232,-0.00374 0.00765,-0.011556 0.00765,-0.017252 0,-0.0057 0.003255,-0.021159 0.007324,-0.034343 C 0.560372,1.733898 0.565092,1.716157 0.566883,1.707856 0.570463,1.690929 0.597482,1.660655 0.616199,1.65268 0.623198,1.649588 0.627267,1.644216 0.625802,1.639985 0.624338,1.635753 0.629709,1.628429 0.638335,1.622895 0.650217,1.615408 0.65396,1.614919 0.655588,1.620616 0.65689,1.624685 0.659982,1.635427 0.662586,1.644542 L 0.667307,1.661306 0.677235,1.644867 C 0.682769,1.635753 0.687489,1.62322 0.687652,1.617035 0.687977,1.610688 0.688466,1.594574 0.688954,1.581228 0.689768,1.562185 0.692046,1.556325 0.700347,1.554047 0.713368,1.550466 0.713205,1.549978 0.699208,1.529632 0.685861,1.510264 0.690256,1.496103 0.711252,1.490732 0.721669,1.488128 0.724273,1.483408 0.726389,1.4629 L 0.728993,1.437998 0.77066,1.426442 C 0.828603,1.410328 0.876292,1.392587 0.938793,1.364267 0.96809,1.350757 0.997061,1.339852 1.002921,1.339852 c 0.00602,0 0.027018,-0.00749 0.046549,-0.016764 C 1.069165,1.313811 1.088208,1.306161 1.092114,1.306161 1.095858,1.305998 1.10839,1.301115 1.119946,1.295093 1.13134,1.289234 1.143547,1.284188 1.147127,1.284188 1.150545,1.284025 1.166008,1.278003 1.181145,1.270679 1.196444,1.263517 1.220207,1.255705 1.234042,1.253589 1.247877,1.25131 1.275872,1.244637 1.29638,1.23894 1.316888,1.233081 1.348138,1.228198 1.365879,1.228198 1.399896,1.228035 1.450026,1.211596 1.46142,1.196948 1.464838,1.192553 1.475906,1.18881 1.485834,1.18881 1.517735,1.18881 1.64827,1.14877 1.701005,1.122891 1.756995,1.095385 1.793453,1.087084 1.890622,1.079597 1.952146,1.074877 2.0485,1.035977 2.096515,0.996263 2.120441,0.976569 2.131834,0.970709 2.146646,0.970709 c 0.014648,0 0.019694,-0.002604 0.02181,-0.01123 0.00146,-0.006185 0.00537,-0.011068 0.00879,-0.011068 0.00325,0 0.014648,-0.005045 0.025391,-0.01123 C 2.213378,0.930996 2.225422,0.92595 2.229491,0.92595 c 0.011556,0 0.015137,-0.020833 0.00846,-0.046875 C 2.232258,0.857102 2.232909,0.854009 2.249999,0.822434 2.259928,0.804042 2.275064,0.780116 2.283528,0.769373 2.292154,0.758631 2.307454,0.734705 2.317545,0.71615 2.338704,0.677739 2.372884,0.637862 2.389486,0.632166 2.395671,0.63005 2.408529,0.619958 2.417969,0.61003 2.428548,0.598637 2.453288,0.583825 2.483562,0.570967 2.52767,0.552087 2.538738,0.549808 2.60254,0.545739 2.670086,0.541507 2.725425,0.527835 2.740237,0.511885 2.743166,0.508955 2.753746,0.506514 2.764,0.506514 c 0.030273,0 0.109864,-0.051107 0.157065,-0.10075 C 2.948897,0.376467 2.969405,0.360191 2.988936,0.351728 3.004236,0.345217 3.032068,0.329429 3.050786,0.316734 3.132492,0.260907 3.229009,0.226889 3.305833,0.226889 3.350104,0.226727 3.484057,0.198406 3.597827,0.164877 3.863454,0.0869146 3.842132,0.0911464 3.988617,0.089356 4.055838,0.0885422 4.126639,0.0861008 4.145845,0.0839849 4.193859,0.0789393 4.210624,0.0841477 4.237805,0.112794 4.2505,0.126303 4.265963,0.137371 4.272148,0.137371 c 0.00602,0 0.01595,0.003092 0.022135,0.006998 0.00602,0.003744 0.023275,0.013998 0.038249,0.022624 C 4.36541,0.186036 4.364596,0.192221 4.331393,0.176433 4.304374,0.163575 4.291028,0.166342 4.291028,0.184572 c 0,0.006835 -0.00488,0.017252 -0.010905,0.023112 -0.00879,0.008463 -0.010417,0.014974 -0.0083,0.032389 0.00228,0.017741 0.00895,0.027995 0.036296,0.05599 l 0.033529,0.03418 0.00326,0.046387 c 0.00179,0.025554 0.00472,0.049154 0.00651,0.052409 0.00195,0.003255 0.01123,0.004558 0.020996,0.002767 0.017415,-0.00293 0.017578,-0.002767 0.017578,0.018555 0,0.013672 0.00651,0.034505 0.017578,0.056967 0.027019,0.054687 0.027344,0.058105 0.00732,0.064128 -0.02181,0.006836 -0.02181,0.020019 0,0.027669 0.00944,0.003255 0.015951,0.007161 0.014486,0.008626 -0.0013,0.001465 -1.62e-4,0.016439 0.00277,0.033204 0.00293,0.016764 0.0057,0.044271 0.00635,0.061198 0.00163,0.043946 0.016602,0.07129 0.050944,0.093588 0.015625,0.009928 0.03418,0.017741 0.041504,0.01709 0.00944,-8.14e-4 0.019532,0.005696 0.035645,0.022949 0.022787,0.024414 0.049154,0.039877 0.068197,0.039877 0.00684,0 0.01058,0.00358 0.01058,0.010416 0,0.017416 0.013346,0.025554 0.026042,0.015951 0.0096,-0.007161 0.013021,-0.006836 0.031575,0.00293 0.01351,0.007161 0.036133,0.012044 0.064942,0.013997 0.024414,0.001628 0.044271,0.005046 0.044271,0.00765 0,0.005534 0.016927,-4.88e-4 0.021322,-0.00765 C 4.835302,0.916022 4.850439,0.916673 4.86932,0.920253 4.887223,0.923834 4.905778,0.924973 4.910498,0.923183 4.915218,0.92123 4.949561,0.917161 4.986671,0.914394 5.023943,0.911464 5.0674,0.907558 5.083188,0.905605 5.106789,0.902838 5.110695,0.903489 5.105324,0.909674 c -0.00977,0.011068 -0.00781,0.028158 0.00342,0.03125 0.01237,0.003581 0.018229,0.024089 0.016764,0.060547 -0.0013,0.039063 0.00391,0.045899 0.025879,0.03418 0.012696,-0.00684 0.020996,-0.00798 0.030599,-0.00423 0.00732,0.00277 0.023764,0.0083 0.036622,0.01237 0.013021,0.00391 0.025228,0.00879 0.027344,0.01058 0.00212,0.00195 -8.14e-4,0.016439 -0.00635,0.032389 -0.00928,0.026042 -0.00944,0.029623 -0.00228,0.037436 0.013672,0.014811 0.027181,0.0013 0.03711,-0.036947 0.00586,-0.022461 0.01416,-0.039389 0.02474,-0.050294 0.047526,-0.04834 0.085287,-0.083008 0.090658,-0.083008 0.00342,0 0.01595,-0.006836 0.027832,-0.0153 C 5.435078,0.926276 5.445495,0.923183 5.471049,0.922858 5.488464,0.922532 5.509786,0.919277 5.51825,0.915533 5.536642,0.907395 5.593934,0.848638 5.593934,0.837733 c 0,-0.004069 0.00602,-0.013346 0.013346,-0.02067 C 5.614604,0.809738 5.622417,0.796717 5.624533,0.787928 5.628439,0.772466 5.629416,0.77214 5.664572,0.772466 5.751812,0.773117 6.076196,0.814458 6.234888,0.84522 6.415065,0.880214 6.571967,0.899094 6.815947,0.915045 6.861846,0.918137 6.931019,0.924322 6.969756,0.92888 7.008494,0.9336 7.104197,0.943366 7.182486,0.95069 7.320345,0.963711 7.329134,0.963873 7.453483,0.956549 7.524285,0.952317 7.668817,0.946132 7.774937,0.942877 7.881058,0.939459 8.008826,0.933274 8.058956,0.92888 8.109087,0.924648 8.201698,0.91944 8.264849,0.917649 8.375853,0.914394 8.575398,0.90121 8.610067,0.895025 8.636271,0.890305 8.663452,0.861822 8.663452,0.839198 8.663452,0.826828 8.660685,0.819992 8.655314,0.81869 8.643595,0.816086 8.689657,0.785324 8.702352,0.78744 8.707886,0.788254 8.717977,0.797694 8.724813,0.808599 8.731487,0.819341 8.742066,0.830246 8.748414,0.833013 8.754761,0.83578 8.766969,0.84164 8.77592,0.84636 8.787639,0.852545 8.794475,0.853196 8.801962,0.848964 8.818564,0.839361 8.83012,0.850429 8.83012,0.875168 c 0,0.025066 0.00635,0.032064 0.034343,0.038575 0.021647,0.004883 0.021484,0.004557 0.014648,0.043132 -0.0026,0.014974 -6.51e-4,0.018392 0.018881,0.032064 0.025879,0.018392 0.035482,0.01888 0.0625,0.004232 0.024251,-0.013347 0.03125,-0.013998 0.03125,-0.003256 0,0.010092 0.024577,0.031088 0.036459,0.031088 0.00505,0 0.01709,0.013346 0.027832,0.030599 0.017253,0.027995 0.021647,0.031413 0.048991,0.039388 0.091147,0.026205 0.095216,0.029134 0.133302,0.092286 0.017741,0.029623 0.026855,0.0389 0.048665,0.049805 0.0153,0.00765 0.029298,0.019043 0.032553,0.02653 0.00879,0.020834 0.016601,0.082846 0.017741,0.142091 8.14e-4,0.04362 -6.51e-4,0.056478 -0.00749,0.064779 -0.017578,0.021322 -0.016765,0.051433 0.00277,0.100586 0.00993,0.025391 0.020508,0.064942 0.023926,0.089519 0.00325,0.024252 0.010579,0.057455 0.016113,0.073894 0.00635,0.018555 0.011393,0.052246 0.013346,0.089519 0.00358,0.065104 0.00619,0.073894 0.02946,0.098796 l 0.015625,0.016764 9.77e-4,0.122723 0.00114,0.122559 0.013347,0.011556 c 0.011556,0.00993 0.015299,0.021973 0.026204,0.081544 0.00749,0.041666 0.019043,0.084798 0.028484,0.106283 0.00863,0.020019 0.032715,0.091797 0.053385,0.159506 0.037761,0.123699 0.077963,0.232423 0.092123,0.249676 0.00423,0.00521 0.014323,0.012207 0.022299,0.015788 0.013021,0.00586 0.014974,0.00993 0.01709,0.037598 0.00212,0.02832 0.00456,0.033366 0.026692,0.05599 0.028484,0.02946 0.030925,0.046387 0.011231,0.0778 -0.00716,0.01123 -0.013021,0.028483 -0.013021,0.038086 0,0.0096 -0.00358,0.022949 -0.00798,0.029623 -0.007,0.010905 -0.007,0.01416 0.0013,0.033366 0.00505,0.011719 0.013346,0.024739 0.018392,0.028809 0.00505,0.00407 0.00798,0.00944 0.00651,0.012207 -0.00163,0.0026 1.63e-4,0.00684 0.00374,0.00944 0.012695,0.00863 0.02474,0.046712 0.032552,0.103191 0.00716,0.051107 0.00716,0.058431 0,0.069987 C 9.756558,3.31594 9.749071,3.431663 9.744026,3.633813 L 9.740933,3.754907 9.623094,3.789901 C 9.396367,3.857121 9.370814,3.865911 9.324427,3.892766 9.253137,3.93427 9.238651,3.950384 9.146203,4.091986 9.121463,4.12991 9.110721,4.153673 9.093305,4.2095 9.081261,4.247912 9.062055,4.295764 9.050662,4.315783 9.030642,4.35094 9.002159,4.41344 9.002159,4.422067 c 0,0.00228 0.00716,0.00732 0.016113,0.011393 l 0.016114,0.00716 -0.00342,0.034017 c -0.00244,0.025066 -0.00146,0.036947 0.00407,0.04476 0.00814,0.012044 0.048177,0.025065 0.078125,0.025391 0.010905,1.62e-4 0.018555,0.00244 0.01709,0.00504 -0.00163,0.00277 0.010417,0.00651 0.026368,0.00863 0.016113,0.00195 0.035482,0.00716 0.042969,0.011393 0.00749,0.00439 0.017903,0.00928 0.023112,0.011068 0.00618,0.00212 0.00846,0.00667 0.00651,0.013346 -0.00228,0.00765 0.00114,0.011719 0.014323,0.016765 0.023112,0.00911 0.029623,0.00846 0.038412,-0.00309 0.00537,-0.00716 0.00814,-0.00781 0.010091,-0.00277 0.00163,0.00391 0.00732,0.007 0.012695,0.007 0.00765,0 0.010092,0.00391 0.010092,0.015788 0,0.011556 0.00586,0.021647 0.021321,0.036458 0.011557,0.011231 0.024577,0.020508 0.028646,0.020508 0.00407,0 0.00732,0.00342 0.00732,0.00765 0,0.00765 0.016601,0.016602 0.04248,0.022624 0.0083,0.00195 0.018393,0.011068 0.024903,0.022135 0.00602,0.01058 0.016602,0.02295 0.023275,0.027833 0.00944,0.00651 0.013835,0.016927 0.018229,0.044271 0.00309,0.019694 0.0057,0.042969 0.0057,0.051758 0,0.00977 0.00553,0.022136 0.01416,0.031738 l 0.014001,0.01579 -0.011394,0.00863 c -0.00635,0.00472 -0.011556,0.013509 -0.011556,0.019531 0,0.00602 -0.00212,0.010905 -0.00488,0.010905 -0.00667,0 -0.034342,0.02946 -0.032715,0.034831 6.51e-4,0.00244 -1.980481,0.00423 -4.402535,0.00423 -3.361675,0 -4.403837,-0.00147 -4.403837,-0.00651 z m 0,0"
       transform="matrix(23.999844,0,0,23.999844,3.71998e-4,0)"
       id="path4"
       inkscape:connector-curvature="0" />
  </g>
</svg>
